<?xml version="1.0" encoding="UTF-8" standalone="no"?>
<!-- Created with Inkscape (http://www.inkscape.org/) -->

<svg
   xmlns:dc="http://purl.org/dc/elements/1.1/"
   xmlns:cc="http://creativecommons.org/ns#"
   xmlns:rdf="http://www.w3.org/1999/02/22-rdf-syntax-ns#"
   xmlns:svg="http://www.w3.org/2000/svg"
   xmlns="http://www.w3.org/2000/svg"
   xmlns:xlink="http://www.w3.org/1999/xlink"
   xmlns:sodipodi="http://sodipodi.sourceforge.net/DTD/sodipodi-0.dtd"
   xmlns:inkscape="http://www.inkscape.org/namespaces/inkscape"
   version="1.1"
   id="svg2"
   width="710"
   height="395"
   viewBox="0 0 710 395"
   sodipodi:docname="toaru_cpu_nofont_blurbg.svg"
   inkscape:version="0.92.2 2405546, 2018-03-11"
   inkscape:export-filename="/tmp/toaru_cpu.svg.png"
   inkscape:export-xdpi="216.34"
   inkscape:export-ydpi="216.34">
  <metadata
     id="metadata8">
    <rdf:RDF>
      <cc:Work
         rdf:about="">
        <dc:format>image/svg+xml</dc:format>
        <dc:type
           rdf:resource="http://purl.org/dc/dcmitype/StillImage" />
        <dc:title></dc:title>
      </cc:Work>
    </rdf:RDF>
  </metadata>
  <defs
     id="defs6">
    <linearGradient
       id="linearGradient1228"
       inkscape:collect="always">
      <stop
         id="stop1220"
         offset="0"
         style="stop-color:#093a95;stop-opacity:1" />
      <stop
         style="stop-color:#006bb8;stop-opacity:1"
         offset="0.45924181"
         id="stop1222" />
      <stop
         style="stop-color:#069edc;stop-opacity:1"
         offset="0.75855345"
         id="stop1224" />
      <stop
         id="stop1226"
         offset="1"
         style="stop-color:#8bc2e9;stop-opacity:1" />
    </linearGradient>
    <linearGradient
       inkscape:collect="always"
       id="linearGradient1325">
      <stop
         style="stop-color:#093a95;stop-opacity:1"
         offset="0"
         id="stop1321" />
      <stop
         id="stop1331"
         offset="0.42783466"
         style="stop-color:#006bb8;stop-opacity:1" />
      <stop
         id="stop1329"
         offset="0.70898396"
         style="stop-color:#069edc;stop-opacity:1" />
      <stop
         style="stop-color:#8bc2e9;stop-opacity:1"
         offset="1"
         id="stop1323" />
    </linearGradient>
    <linearGradient
       inkscape:collect="always"
       xlink:href="#linearGradient1325"
       id="linearGradient1327"
       x1="78.889435"
       y1="387.08798"
       x2="218.51112"
       y2="-92.268539"
       gradientUnits="userSpaceOnUse" />
    <linearGradient
       inkscape:collect="always"
       xlink:href="#linearGradient1325"
       id="linearGradient1359"
       gradientUnits="userSpaceOnUse"
       x1="77.547066"
       y1="348.1593"
       x2="218.51112"
       y2="-92.268539" />
    <linearGradient
       inkscape:collect="always"
       xlink:href="#linearGradient1228"
       id="linearGradient1218"
       x1="102.95999"
       y1="343.73727"
       x2="221.05826"
       y2="-60.315624"
       gradientUnits="userSpaceOnUse" />
    <filter
       inkscape:collect="always"
       style="color-interpolation-filters:sRGB"
       id="filter1423"
       x="-0.011144253"
       width="1.0222885"
       y="-0.020343174"
       height="1.0406863">
      <feGaussianBlur
         inkscape:collect="always"
         stdDeviation="3.2110467"
         id="feGaussianBlur1425" />
    </filter>
  </defs>
  <sodipodi:namedview
     pagecolor="#000000"
     bordercolor="#666666"
     borderopacity="1"
     objecttolerance="10"
     gridtolerance="10"
     guidetolerance="10"
     inkscape:pageopacity="0"
     inkscape:pageshadow="2"
     inkscape:window-width="1920"
     inkscape:window-height="1176"
     id="namedview4"
     showgrid="false"
     showguides="true"
     inkscape:guide-bbox="true"
     inkscape:snap-global="false"
     inkscape:snap-bbox="false"
     inkscape:object-paths="false"
     inkscape:snap-intersection-paths="false"
     inkscape:snap-smooth-nodes="true"
     inkscape:zoom="2.1070422"
     inkscape:cx="235.70278"
     inkscape:cy="182.22979"
     inkscape:window-x="1680"
     inkscape:window-y="0"
     inkscape:window-maximized="1"
     inkscape:current-layer="g1274" />
  <g
     inkscape:label="bg"
     id="g1274"
     inkscape:groupmode="layer"
     style="display:inline">
    <path
       style="color:#000000;font-style:normal;font-variant:normal;font-weight:bold;font-stretch:normal;font-size:medium;line-height:125%;font-family:'Kozuka Mincho Pro';-inkscape-font-specification:'Kozuka Mincho Pro Bold';text-indent:0;text-align:center;text-decoration:none;text-decoration-line:none;letter-spacing:normal;word-spacing:normal;text-transform:none;writing-mode:lr-tb;direction:ltr;baseline-shift:baseline;text-anchor:middle;clip-rule:nonzero;visibility:visible;isolation:auto;mix-blend-mode:normal;color-interpolation:sRGB;color-interpolation-filters:linearRGB;solid-color:#000000;solid-opacity:1;fill:#fbfeff;fill-opacity:1;fill-rule:evenodd;stroke:none;stroke-width:15;stroke-linecap:round;stroke-linejoin:round;stroke-miterlimit:4;stroke-dasharray:none;stroke-dashoffset:0;stroke-opacity:1;marker:none;paint-order:markers stroke fill;color-rendering:auto;image-rendering:auto;shape-rendering:auto;text-rendering:auto;filter:url(#filter1423)"
       d="M 313.60352 8.0078125 A 7.50075 7.50075 0 0 0 306.56445 13.320312 C 299.84244 35.381947 288.81393 57.357289 279.9668 68.580078 A 7.50075 7.50075 0 0 0 280.43945 78.408203 L 280.52148 78.494141 A 7.50075 7.50075 0 0 0 277.95703 80.605469 C 273.88913 78.094197 268.78836 76.697647 263.0293 76.251953 C 264.81463 74.878297 266.60203 73.521742 268.30664 72.386719 C 269.10739 71.861994 270.21916 71.47065 272.21289 70.365234 C 273.21431 69.810001 274.55321 69.020167 275.85547 67.404297 C 277.15773 65.788427 278.05859 63.244627 278.05859 61.09375 C 278.05859 57.69065 276.77327 55.973486 275.66992 54.476562 C 274.56657 52.979639 273.31819 51.774105 271.91211 50.671875 C 269.09996 48.467415 265.83496 46.414062 260.92188 46.414062 C 256.82547 46.414063 255.06395 48.492885 254.33789 49.099609 C 254.12722 49.275655 254.10423 49.284441 254.01172 49.351562 C 253.58917 49.466358 249.62738 50.476275 245.625 51.15625 C 242.08126 51.758306 238.73812 52.079182 236.45703 52.208984 A 7.50075 7.50075 0 0 0 232.21289 47.958984 L 231.77539 47.787109 A 7.50075 7.50075 0 0 0 225.24414 48.294922 C 220.19806 51.248669 218.9043 55.252633 218.9043 59.640625 C 218.9043 64.27763 220.90432 68.07123 223.63281 70.951172 C 225.97579 73.424204 229.11689 75.361943 232.98047 75.886719 C 229.46598 79.287517 226.03889 82.612799 223.30469 85.228516 C 223.22329 81.701751 221.23002 78.594387 219.25781 76.880859 C 217.24465 75.13175 215.20484 74.218143 213.20703 73.484375 C 209.21141 72.01684 205.17003 71.414946 202.04688 71.033203 A 7.50075 7.50075 0 0 0 196.58398 72.519531 L 196.12891 72.867188 A 7.50075 7.50075 0 0 0 193.87109 75.695312 C 193.84519 75.737022 193.95079 75.687312 193.68555 75.837891 C 192.74765 76.370251 190.80301 77.145995 188.58594 77.783203 C 188.19824 77.894632 187.75804 77.958997 187.35547 78.064453 C 187.71976 77.074365 188.01758 75.892285 188.01758 74.300781 C 188.01758 68.609036 184.05685 64.795881 180.14062 62.699219 C 176.2244 60.602557 171.56766 59.607422 166.27734 59.607422 C 159.44856 59.607422 153.57726 62.941953 150.67383 69.349609 A 7.50075 7.50075 0 0 0 150.52734 75.193359 L 150.75586 75.773438 A 7.50075 7.50075 0 0 0 158.34766 80.5 C 158.38046 80.4973 158.36839 80.5024 158.40039 80.5 C 158.39639 80.840841 158.37859 81.433506 158.37109 81.839844 C 158.05868 81.847044 157.5524 81.886719 157.27734 81.886719 C 151.63594 81.886719 149.486 80.622432 149.18945 80.306641 A 7.50075 7.50075 0 0 0 138.375 80.183594 L 137.34961 81.226562 A 7.50075 7.50075 0 0 0 135.45508 88.435547 C 137.77099 97.028822 146.2071 104.7846 157.87695 105.26562 C 157.86115 106.82748 157.83325 108.34245 157.81445 109.90234 C 141.14292 118.54452 130.09831 133.02755 129.88477 149.13867 C 125.20014 147.60767 120.24911 146.98907 115.10742 146.46289 A 7.50075 7.50075 0 0 0 109.66992 148.05859 C 110.27995 147.5726 105.22602 149.92859 98.425781 150.98633 C 91.625544 152.04406 82.591144 152.72852 72.513672 152.72852 C 60.336442 152.72852 49.633356 152.09896 43.335938 149.90234 C 40.187227 148.80404 38.289061 147.48082 37.142578 146.03125 C 35.996096 144.58168 35.236328 142.793 35.236328 139.27344 C 35.236328 135.44362 37.091515 131.09725 41.384766 126.21875 C 45.678016 121.34025 52.257823 116.24343 60.208984 111.50195 C 76.111307 102.019 97.401298 93.88927 116.67773 88.65625 C 120.97421 87.62315 124.91606 86.690122 128.74414 84.400391 C 132.63605 82.072482 136.2168 76.885529 136.2168 71.589844 C 136.2168 64.197941 132.06944 59.155839 127.27539 54.708984 C 122.48134 50.262134 116.46265 46.472656 109 46.472656 C 102.35425 46.472656 95.970872 48.586783 92.421875 55.283203 A 7.50075 7.50075 0 0 0 93.738281 64.091797 L 94.476562 64.832031 A 7.50075 7.50075 0 0 0 96.257812 66.150391 C 87.103979 70.368957 75.759656 75.892133 67.046875 80.398438 C 66.325597 79.180589 65.719322 77.483807 65.626953 75.962891 C 65.626879 75.961691 65.627026 75.960184 65.626953 75.958984 C 65.445999 72.676983 65.273436 68.931793 65.273438 65.285156 C 65.273438 58.69144 65.646947 51.803511 66.632812 46.181641 A 7.50075 7.50075 0 0 0 66.652344 46.064453 C 66.856414 44.780953 67.412968 43.25291 68.150391 41.398438 C 68.887813 39.543963 70.064453 37.470528 70.064453 33.759766 C 70.064453 26.634635 65.474453 21.210017 60.234375 17.820312 C 54.994297 14.430608 48.558992 12.537109 41.740234 12.537109 C 33.7531 12.537109 26.619819 16.738187 23.509766 24.736328 A 7.50075 7.50075 0 0 0 23.380859 29.816406 L 23.75 30.929688 A 7.50075 7.50075 0 0 0 32.941406 35.775391 C 32.955856 35.771191 33.450041 35.697266 34.554688 35.697266 C 37.760008 35.697266 36.702747 35.844268 36.699219 35.837891 C 36.695719 35.831491 37.005859 37.189915 37.005859 39.136719 C 37.005859 39.566244 36.918399 42.341988 36.826172 44.867188 C 36.733952 47.392387 36.636719 49.618434 36.636719 51.005859 C 36.636719 62.595634 36.536044 72.262145 38.259766 80.773438 C 39.197057 85.401539 41.028091 89.801724 43.716797 93.585938 C 36.085112 98.701172 28.999811 104.45066 23.214844 110.7793 C 15.342856 119.39109 9.5488281 129.30941 9.5488281 140.38672 C 9.5488281 154.94306 16.871712 166.6828 28.474609 172.91016 C 34.068791 175.91259 40.509938 177.87746 47.667969 179.15039 L 44.375 179.15039 A 7.50075 7.50075 0 0 0 36.875 186.65039 L 36.875 346.82812 A 7.50075 7.50075 0 0 0 44.375 354.32812 L 182.24609 354.32812 A 7.50075 7.50075 0 0 0 189.74609 346.82812 L 189.74609 346.45312 A 7.50075 7.50075 0 0 0 190.51562 348.45508 L 192.75391 352.41797 A 7.50075 7.50075 0 0 0 200.61914 356.11133 C 204.5836 355.39474 208.926 353.83864 212.98242 351.51953 A 7.50075 7.50075 0 0 0 213.00391 351.50586 C 218.82125 348.15346 223.83046 343.69442 227.375 338.40625 A 7.50075 7.50075 0 0 0 227.67969 330.54883 L 225.37891 326.46484 A 7.50075 7.50075 0 0 0 215.53516 323.42188 A 7.50075 7.50075 0 0 0 213.69336 321.58789 C 211.81076 320.27748 208.67286 318.26489 206.2832 316.91797 A 7.50075 7.50075 0 0 0 196.33984 319.32031 L 194.16016 322.62305 A 7.50075 7.50075 0 0 0 193.28125 324.47656 A 7.50075 7.50075 0 0 0 191.72461 326.19141 L 189.74609 329.21875 L 189.74609 303.19336 A 7.50075 7.50075 0 0 0 198.33008 306.31641 C 201.79663 305.21743 203.82747 303.14385 205.1582 300.73633 C 215.18158 294.64473 222.99328 289.55651 229.57422 285.05859 A 7.50075 7.50075 0 0 0 236.00195 288.70312 L 254.58984 288.70312 L 254.58984 301.72852 L 223.63672 301.72852 A 7.50075 7.50075 0 0 0 216.30469 310.80664 L 216.92383 313.68164 A 7.50075 7.50075 0 0 0 224.25586 319.60352 L 273.52344 319.60352 A 7.50075 7.50075 0 0 0 272.03711 325.38867 C 272.05641 325.50873 272.18164 327.3373 272.18164 327.32422 L 272.18164 343.6875 C 272.18164 346.42496 273.18753 349.63596 275.30078 351.87305 C 277.41403 354.11014 280.10574 355.1371 282.49219 355.55078 A 7.50075 7.50075 0 0 0 282.5625 355.5625 C 284.38499 355.8608 286.46374 356.01953 288.78906 356.01953 C 292.39126 356.01953 296.9125 355.85049 300.53125 355.30859 A 7.50075 7.50075 0 0 0 306.91992 347.89062 L 306.91992 343.50586 A 7.50075 7.50075 0 0 0 303.81445 337.44141 A 7.50075 7.50075 0 0 0 305.69141 334.84961 C 308.57319 332.82775 310.5918 329.64138 310.5918 325.91406 C 310.5918 323.20123 309.48058 320.76729 307.82227 318.82031 C 308.32435 318.67064 308.80586 318.62012 309.32422 318.39648 C 311.76446 317.34368 313.98962 315.09253 315.08398 313.02539 A 7.50075 7.50075 0 0 0 313.55664 304.01758 L 300.08008 291.51367 A 7.50075 7.50075 0 0 0 288.53906 293.16602 L 283.42578 301.72852 L 282.57227 301.72852 L 282.57227 288.70312 L 297.69922 288.70312 C 299.79897 288.70312 301.9011 288.61842 304.33398 287.64453 C 306.76686 286.67059 309.13061 284.4061 310.26172 282.26953 A 7.50075 7.50075 0 0 0 308.69336 273.22461 L 300.21094 265.4707 C 300.51055 265.31953 300.95489 265.22791 301.23242 265.07031 C 302.81569 264.17126 304.03192 263.2014 304.9375 262.30469 C 305.39029 261.85633 305.76099 261.4348 306.10352 260.98633 C 306.27478 260.76209 306.43401 260.54376 306.64062 260.20898 C 306.74394 260.0416 306.85585 259.85906 307.03125 259.49805 C 307.08175 259.39402 307.19396 259.27871 307.28906 259.19531 A 7.50075 7.50075 0 0 0 307.30664 262.22461 L 307.92383 265.09961 A 7.50075 7.50075 0 0 0 315.25586 271.02539 L 336.80469 271.02539 C 329.18413 276.24811 320.44001 281.00363 311.02148 284.52539 A 7.50075 7.50075 0 0 0 306.50977 293.85352 L 307.25195 296.1543 A 7.50075 7.50075 0 0 0 315.97656 301.18164 C 317.75802 300.79638 319.4756 300.27367 321.24219 299.85352 A 7.50075 7.50075 0 0 0 321.88867 303.24219 L 329.55469 320.3457 A 7.50075 7.50075 0 0 0 337.94922 324.61523 C 340.75177 324.02294 342.94783 322.33337 344.55859 320.23828 C 364.07981 314.08753 377.71698 309.20362 387.90039 305.09961 C 396.11744 313.44748 405.95404 319.58851 416.96289 324.19531 A 7.50075 7.50075 0 0 0 427.18359 318.88477 C 428.41153 313.28522 430.30067 311.49946 432.46875 310.90234 L 432.46875 351.36328 A 7.50075 7.50075 0 0 0 439.96875 358.86328 C 446.1058 358.86328 450.82375 357.17201 453.9375 354.89062 C 455.49437 353.74995 456.62891 352.50648 457.41797 351.38672 C 457.8125 350.82684 458.12176 350.30469 458.38086 349.78125 C 458.51041 349.51953 458.62596 349.26657 458.75391 348.92969 C 458.81791 348.76125 458.88446 348.57967 458.9707 348.2793 C 459.0303 348.07161 459.10776 347.4404 459.17578 346.82617 L 535.52148 346.82617 C 537.86486 346.82617 540.48526 346.54304 543.0625 345.02734 C 545.63974 343.51165 547.39232 340.88466 548.23828 338.70508 A 7.50075 7.50075 0 0 0 546.83984 330.99609 L 534.10547 316.73438 A 7.50075 7.50075 0 0 0 531.69141 314.93945 L 531.69141 271.4082 C 533.34462 270.0629 534.63226 268.48542 535.54688 266.82812 A 7.50075 7.50075 0 0 0 534.55859 258.19141 L 526.49609 249.2207 L 535.75586 249.2207 C 537.9574 249.2207 540.42873 249.09361 543.10742 247.58203 C 545.78611 246.07046 547.59446 243.20219 548.34766 240.98438 A 7.50075 7.50075 0 0 0 546.61719 233.33594 L 539.21094 225.73828 C 539.32108 225.20717 539.51758 224.82296 539.51758 224.12695 L 539.51758 209.67383 A 7.50075 7.50075 0 0 0 541.0293 209.83594 L 552.27344 209.83594 L 552.27344 352.42188 L 541.0293 352.42188 A 7.50075 7.50075 0 0 0 533.5293 359.92188 L 533.5293 379.33203 A 7.50075 7.50075 0 0 0 541.0293 386.83203 L 683.34961 386.83203 A 7.50075 7.50075 0 0 0 690.84961 379.33203 L 690.84961 374.33203 L 690.84961 359.92188 A 7.50075 7.50075 0 0 0 683.34961 352.42188 L 672.10547 352.42188 L 672.10547 209.83594 L 683.34961 209.83594 A 7.50075 7.50075 0 0 0 690.84961 202.33594 L 690.84961 182.92773 A 7.50075 7.50075 0 0 0 683.34961 175.42773 L 655.20312 175.42773 C 666.83628 171.74062 676.22242 166.52559 683.38867 159.79492 C 695.86339 148.07844 701.07227 132.21918 701.07227 115.60352 C 701.07227 97.618532 695.03753 81.614459 683.44336 70.357422 C 671.84919 59.100385 655.0612 52.896484 634.92383 52.896484 C 604.71758 52.896484 580.97932 68.745527 568.75 90.462891 L 555.82812 80.382812 A 7.50075 7.50075 0 0 0 546.48438 80.476562 L 543.60352 82.818359 L 543.60352 71.257812 C 545.09098 70.594626 546.53476 69.668576 548.02539 68.052734 A 7.50075 7.50075 0 0 0 546.1582 56.412109 L 528.75781 46.734375 A 7.50075 7.50075 0 0 0 519.63281 48.169922 L 515.59766 52.488281 L 470.38672 52.488281 L 453.92188 47.367188 A 7.50075 7.50075 0 0 0 444.19531 54.529297 L 444.19531 80.537109 A 7.50075 7.50075 0 0 0 440.30273 79.677734 L 438.01367 79.800781 A 7.50075 7.50075 0 0 0 433.70117 81.466797 A 7.50075 7.50075 0 0 0 432.56445 80.15625 L 417.41211 66.431641 A 7.50075 7.50075 0 0 0 409.11914 65.240234 L 409.11914 54.679688 L 412.07422 54.679688 C 414.61073 54.679688 417.00315 54.569112 419.66992 53.519531 C 422.33669 52.469951 424.88139 50.046082 426.125 47.699219 A 7.50075 7.50075 0 0 0 424.44141 38.546875 L 408.38086 24.470703 A 7.50075 7.50075 0 0 0 397.08984 26.117188 L 390.6582 36.335938 L 333.9668 36.335938 C 334.69909 36.165976 335.4301 36.113695 336.16211 35.792969 C 338.94815 34.572275 341.06183 32.04401 342.04297 29.955078 A 7.50075 7.50075 0 0 0 338.73242 20.123047 L 317.2168 8.8613281 A 7.50075 7.50075 0 0 0 313.60352 8.0078125 z M 474.76367 69.970703 L 479.61914 69.970703 A 7.50075 7.50075 0 0 0 479.60742 70.289062 L 479.60742 85.871094 L 474.76367 85.871094 L 474.76367 69.970703 z M 635.99609 72.886719 C 648.64166 73.21507 655.93245 77.211699 660.88867 83.867188 C 666.05918 90.810428 668.7168 101.58185 668.7168 114.8418 C 668.7168 135.43193 657.97703 156.1002 622.65039 163.31055 A 7.50075 7.50075 0 0 0 616.89062 172.53906 L 617.63867 175.42773 L 541.0293 175.42773 A 7.50075 7.50075 0 0 0 534.24219 179.75781 L 529.56055 174.59375 C 533.41195 173.49712 536.57647 171.96595 539.19922 169.66406 C 544.18246 165.29047 545.12891 158.84382 545.12891 154.30078 L 545.12891 120.19336 C 546.53235 119.5323 547.82798 118.71059 549.05078 117.55078 A 7.50075 7.50075 0 0 0 551.20117 113.76172 C 555.07964 111.74439 558.6373 109.69343 561.89844 107.55859 C 560.47323 113.09697 559.64844 118.79533 559.64844 124.57617 C 559.64844 136.29378 562.0757 146.24041 567.0332 153.78711 C 571.9907 161.3338 580.09241 166.29492 588.99219 166.29492 C 597.09725 166.29492 604.28542 162.35547 610.18164 156.9082 C 616.07786 151.46094 621.00253 144.34098 625.13672 136.40625 C 633.40509 120.53679 638.5332 101.45094 638.5332 85.185547 C 638.5332 80.593408 637.58523 76.462333 635.99609 72.886719 z M 300.63086 74.455078 L 300.63086 77.6875 L 296.16406 77.6875 C 297.65746 76.629642 299.15046 75.60746 300.63086 74.455078 z M 612.12695 78.210938 C 612.02815 89.884371 608.15907 104.95168 602.79883 116.49219 C 600.08402 122.33711 596.97829 127.29587 594.23047 130.39648 C 592.20439 132.68269 590.85286 133.41364 590.14062 133.74609 C 589.47402 132.27075 588.71289 128.70657 588.71289 123.9668 C 588.71289 103.47631 597.66028 86.376339 612.12695 78.210938 z M 509.56445 85.359375 L 512.88086 85.359375 L 512.88086 85.871094 L 509.56445 85.871094 L 509.56445 85.359375 z M 258.46875 94.490234 C 261.94696 94.490234 263.19642 95.262799 263.94141 96.048828 C 264.59346 96.736802 265.21743 98.302271 265.38477 101.02344 C 264.66336 100.38704 263.94434 99.739017 263.17969 99.21875 C 260.28833 97.251472 257.05148 95.953424 253.6582 95.271484 C 256.11644 94.753672 258.11586 94.490234 258.46875 94.490234 z M 420.4043 96.189453 C 419.97538 96.534396 419.51233 96.783028 419.10156 97.177734 C 416.89822 99.294928 414.82331 102.54719 414.75977 106.59375 A 7.50075 7.50075 0 0 0 409.11914 105.70117 L 409.11914 96.207031 L 420.10547 96.207031 C 420.20731 96.207031 420.30292 96.190103 420.4043 96.189453 z M 288.70117 96.207031 L 300.63086 96.207031 L 300.63086 119.56641 L 286.46484 119.56641 A 7.50075 7.50075 0 0 0 282.9707 120.43555 C 287.09989 115.63183 289.5332 109.4907 289.5332 102.97266 C 289.5332 100.72993 289.20202 98.457425 288.70117 96.207031 z M 212.5 97.601562 C 211.71861 99.323092 211.10742 101.21255 211.10742 103.48438 C 211.10742 104.12757 211.29145 104.45537 211.35156 104.98047 C 208.82157 104.12986 206.18803 103.45817 203.45117 102.95703 C 202.83012 102.07364 202.14906 101.24463 201.38086 100.47461 C 205.48823 99.61476 209.15493 98.773968 212.5 97.601562 z M 227.64844 114.48438 C 227.65644 114.54988 227.66748 114.6143 227.67578 114.67969 C 227.62748 114.63209 227.58578 114.57857 227.53711 114.53125 C 227.57271 114.51405 227.61311 114.50187 227.64844 114.48438 z M 442.66797 117.21094 L 442.66797 169.19141 A 7.50075 7.50075 0 0 0 444.60352 174.20703 A 7.50075 7.50075 0 0 0 433.87109 180.97266 L 433.87109 201.43164 L 422.125 191.41992 A 7.50075 7.50075 0 0 0 410.94922 193.07422 L 406.24023 200.40625 L 405.22461 200.40625 L 405.22461 192.72266 C 405.45306 192.57513 405.66127 192.54075 405.89453 192.36914 C 407.7098 191.03361 408.83447 188.80569 409.49023 186.79102 C 411.59271 187.88854 413.86276 188.58789 416.31641 188.58789 C 421.28723 188.58789 425.69083 185.80346 428.29883 182.23828 C 430.90683 178.6731 432.15039 174.30223 432.15039 169.65039 C 432.15039 158.77844 425.22963 146.66957 409.63477 137.91016 L 417.98438 137.91016 C 420.62342 137.91016 423.09959 137.7116 425.69336 136.60742 C 428.28712 135.50324 430.57187 133.2236 431.75977 131.1543 A 7.50075 7.50075 0 0 0 430.56641 122.12305 L 428.72461 120.27539 C 429.57024 120.36639 430.37364 120.60156 431.24219 120.60156 C 435.5326 120.60156 439.46166 119.2803 442.66797 117.21094 z M 279.99219 123.29688 A 7.50075 7.50075 0 0 0 279.15039 128.72461 L 279.9082 132.06836 A 7.50075 7.50075 0 0 0 287.22266 137.91016 L 302.78906 137.91016 C 301.73454 146.91568 294.36862 154.34172 289.83203 156.20117 A 7.50075 7.50075 0 0 0 288.66211 156.80469 C 283.95389 159.7871 278.96484 165.1884 278.96484 172.81836 C 278.96484 176.94188 280.67563 181.0465 283.50391 183.81445 L 282.20508 185.74609 L 252.43555 185.74609 L 240.63086 180.0293 A 7.50075 7.50075 0 0 0 231.20508 182.50391 L 228.49219 179.98633 A 7.50075 7.50075 0 0 0 216.96875 181.60938 L 212.47852 189.05078 L 190.25391 189.05078 A 7.50075 7.50075 0 0 0 189.74609 189.07617 L 189.74609 186.65039 A 7.50075 7.50075 0 0 0 182.24609 179.15039 L 110.91406 179.15039 C 113.36971 178.90028 116.67004 178.66309 118.58008 178.42773 A 7.50075 7.50075 0 0 0 118.70898 178.41016 C 123.52415 177.73177 128.07091 176.97582 132.26562 175.3125 C 134.363 174.48084 136.45581 173.42895 138.39062 171.50781 C 139.43212 170.47369 140.35049 169.05825 141.00195 167.48438 C 144.05626 168.94591 147.2967 169.64063 150.44336 169.64062 C 158.95885 169.64062 166.63877 166.73673 173.39258 162.60352 C 173.60056 162.7266 173.83957 162.7958 174.05469 162.90625 A 7.50075 7.50075 0 0 0 172.21484 170.39453 L 172.89844 172.59961 A 7.50075 7.50075 0 0 0 180.73633 177.84766 C 199.46022 176.15776 213.15273 172.32426 222.86914 165.65625 C 232.58556 158.98824 237.6875 148.76421 237.6875 138.12109 C 237.6875 134.34245 236.8772 130.79715 235.70508 127.41992 C 240.4787 130.54878 246.41941 131.92383 253.21094 131.92383 C 263.39 131.92383 272.24616 129.428 278.87305 124.37305 C 279.2888 124.05591 279.59721 123.63571 279.99219 123.29688 z M 204.74414 124.72656 C 208.1307 127.49087 209.46364 131.56824 209.46875 137.50977 C 209.42115 142.55615 207.54271 146.99925 202.76953 151.16797 C 199.83077 153.73457 195.52579 156.05549 190.05078 157.91016 C 191.63046 155.01963 192.00586 152.57886 192.00586 150.18945 C 192.00586 148.74608 191.74672 147.54268 191.41797 146.4375 C 195.57787 141.43246 199.16407 136.30865 201.67188 131.51758 C 202.95059 129.07462 203.88563 126.90213 204.74414 124.72656 z M 158.85156 135.80664 C 159.15677 137.72192 159.50303 139.61586 159.97461 141.46094 C 158.00932 142.45977 156.54444 143.06641 155.60938 143.24219 C 155.92992 140.9244 156.88471 138.42022 158.85156 135.80664 z M 320.32422 137.91016 L 322.35938 137.91016 A 7.50075 7.50075 0 0 0 322.07031 142.44336 C 322.91211 145.7951 323.51172 150.99348 323.51172 156.27734 C 323.51172 161.56149 322.90226 167.44225 321.79492 171.58594 A 7.50075 7.50075 0 0 0 322.3125 176.83203 C 324.84847 181.98589 329.64742 186.03565 335.32812 186.35742 L 335.32812 188.65234 C 332.11368 186.41742 328.25962 184.45081 323.62695 182.94922 A 7.50075 7.50075 0 0 0 316.71875 184.15625 L 315.60547 185.01953 A 7.50075 7.50075 0 0 0 314.00781 195.17773 C 316.20414 198.39265 318.55615 205.83535 318.39453 210.0625 A 7.50075 7.50075 0 0 0 319.51758 214.30859 C 320.65071 216.13233 322.24653 217.65003 324.00977 218.86133 C 320.43739 219.93021 314.84809 221.73173 313.03125 222.19531 A 7.50075 7.50075 0 0 0 307.79492 227.02734 L 307.79492 204.88477 C 309.2438 203.93707 310.49031 202.80758 311.48047 201.49219 A 7.50075 7.50075 0 0 0 310.28906 191.2207 L 304.0625 186.0332 C 308.07708 184.15188 311.68386 181.23115 314.44336 177.40234 C 319.1381 170.88839 321.84375 162.08186 321.84375 151.70312 C 321.84375 147.32264 321.23749 142.69757 320.32422 137.91016 z M 340.26953 137.91016 L 349.29492 137.91016 A 7.50075 7.50075 0 0 0 350.19141 144.19531 C 354.83992 151.29849 359.36327 165.90452 359.12109 174.9043 A 7.50075 7.50075 0 0 0 359.19531 176.11914 L 351.17578 175.32422 C 352.46118 172.21922 353.20898 168.73265 353.20898 165.07617 C 353.20898 156.50409 349.23599 146.87715 340.26953 137.91016 z M 370.73047 137.91016 L 378.54688 137.91016 A 7.50075 7.50075 0 0 0 381.06055 144.13867 C 389.29866 151.38235 397.95212 165.08133 401.68164 176.39062 L 387.69141 174.8418 C 388.5068 172.4603 388.9668 169.8965 388.9668 167.1875 C 388.9668 157.54295 383.35507 146.64886 370.73047 137.91016 z M 473.69531 149.39062 L 497.36133 149.39062 A 7.50075 7.50075 0 0 0 493.95508 155.66602 L 493.95508 157.2793 A 7.50075 7.50075 0 0 0 500.71875 164.74219 C 505.39176 165.20269 508.0739 166.1162 508.53125 166.43164 C 508.9886 166.74708 509.06641 166.13351 509.06641 169.19141 A 7.50075 7.50075 0 0 0 516.15234 176.67383 L 513.92578 181.4375 L 456.45703 181.4375 L 448.35742 176.46094 A 7.50075 7.50075 0 0 0 450.16797 176.69141 C 457.89463 176.69141 463.13 175.39154 466.83594 173.43359 C 468.6889 172.45462 470.13233 171.30988 471.19727 170.12695 C 471.72973 169.53549 472.16459 168.94718 472.54102 168.30469 C 472.72923 167.98344 472.90133 167.65859 473.08594 167.2168 C 473.27055 166.775 473.69531 167.1273 473.69531 164.22852 L 473.69531 149.39062 z M 367.52734 185.25781 C 369.30935 186.07815 371.18378 186.65234 373.13281 186.65234 C 374.49206 186.65234 375.77637 186.41875 376.99609 186.04492 L 376.99609 200.40625 L 362.81641 200.40625 L 362.81641 192.54492 C 363.16037 192.31693 363.51255 192.23775 363.85352 191.95703 C 366.06597 190.13548 367.1567 187.29724 367.52734 185.25781 z M 512.30078 200.14062 L 512.36914 200.14062 L 512.36914 209.95898 L 512.30078 209.95898 L 512.30078 200.14062 z M 189.74609 206.81055 A 7.50075 7.50075 0 0 0 190.99609 206.92578 L 196.97266 206.92578 L 196.97266 229.15039 L 191.36719 229.15039 A 7.50075 7.50075 0 0 0 189.74609 229.33398 L 189.74609 206.81055 z M 229.86133 206.91406 L 229.86133 221.58203 L 229.5293 221.23828 A 7.50075 7.50075 0 0 0 224.83203 218.98242 L 224.83203 206.92578 L 229.69531 206.92578 C 229.74971 206.92578 229.80682 206.91426 229.86133 206.91406 z M 559.33789 209.83594 L 559.64062 209.83594 L 559.76953 209.83594 A 7.50075 7.50075 0 0 0 559.77344 209.83594 L 559.77344 209.84961 C 559.50369 209.85984 559.33414 209.85102 559.33789 209.83594 z M 433.87109 215.21289 L 433.87109 230.05273 A 7.50075 7.50075 0 0 0 433.89453 230.51758 L 432.14258 230.51758 A 7.50075 7.50075 0 0 0 428.4082 231.52148 L 419.60156 223.81836 A 7.50075 7.50075 0 0 0 408.33789 225.43359 L 405.22461 230.32422 L 405.22461 218.2793 L 424.43164 218.2793 C 426.59702 218.2793 428.80755 218.11636 431.22656 217.05664 C 432.16398 216.64598 433.02961 215.92933 433.87109 215.21289 z M 362.81641 218.2793 L 376.99609 218.2793 L 376.99609 233.0293 L 362.81641 233.0293 L 362.81641 218.2793 z M 459.10156 228.66211 L 473.66406 228.66211 L 473.625 230.51758 L 457.83789 230.51758 C 458.345 229.87453 458.75472 229.26307 459.10156 228.66211 z M 503.80859 228.66211 L 512.37305 228.66211 A 7.50075 7.50075 0 0 0 512.63672 230.51758 L 502.33008 230.51758 C 502.58743 230.26253 502.91656 230.12582 503.15234 229.8418 C 503.45657 229.47532 503.55957 229.04902 503.80859 228.66211 z M 307.79492 231.87891 A 7.50075 7.50075 0 0 0 308.29883 233.04883 L 316.83008 248.71484 A 7.50075 7.50075 0 0 0 325.88477 252.21094 C 329.61092 250.91156 331.63547 248.37338 332.73438 245.45703 C 333.7856 244.50077 334.34655 243.88908 335.32812 242.97656 L 335.32812 251.74023 A 7.50075 7.50075 0 0 0 335.4668 253.15039 L 314.63867 253.15039 A 7.50075 7.50075 0 0 0 307.57031 258.16992 C 307.67394 257.72562 307.79492 257.39099 307.79492 256.19531 L 307.79492 231.87891 z M 189.74609 246.64062 A 7.50075 7.50075 0 0 0 192.10938 247.02344 L 196.97266 247.02344 L 196.97266 271.98438 C 194.35741 272.55872 191.40428 273.22343 189.74609 273.53906 L 189.74609 246.64062 z M 229.86133 246.95508 L 229.86133 262.66406 A 7.50075 7.50075 0 0 0 229.99219 264.02148 C 228.27383 264.47457 226.56438 264.90925 224.83203 265.34961 L 224.83203 247.02344 L 228.58398 247.02344 C 229.00075 247.02344 229.43864 246.96938 229.86133 246.95508 z M 429.92969 248.67188 A 7.50075 7.50075 0 0 0 432.72656 249.2207 L 454.38477 249.2207 A 7.50075 7.50075 0 0 0 454.3125 250.24023 L 454.3125 251.57031 L 440.92969 249.8418 A 7.50075 7.50075 0 0 0 433.17578 254.12109 L 428.16406 249.75 C 428.22776 249.7255 428.28153 249.72882 428.3457 249.70312 C 428.90351 249.47994 429.3931 249.01377 429.92969 248.67188 z M 498.75195 249.2207 L 506.95117 249.2207 L 506.15039 250.89062 L 498.5293 250.89062 L 498.75195 249.2207 z M 389.92969 250.76172 L 407.4043 250.76172 L 405.86914 253.15039 L 388.87305 253.15039 C 389.37521 252.35408 389.62466 251.59751 389.92969 250.76172 z M 254.58984 263.75391 L 254.58984 270.97266 L 242.41602 270.97266 A 7.50075 7.50075 0 0 0 242.3125 270.43359 L 242.16992 269.83008 C 246.46674 269.21837 249.84394 267.79932 252.29102 265.93555 C 253.20641 265.23835 253.94836 264.49677 254.58984 263.75391 z M 432.46875 268.66016 L 432.46875 294.63477 A 7.50075 7.50075 0 0 0 432.10352 294.54688 C 425.33363 293.17516 418.9133 291.232 412.98828 288.70898 C 415.26152 287.89027 417.43174 287.06104 419.40625 286.19922 C 419.97904 286.24002 420.52492 286.25977 420.72266 286.25977 C 422.19576 286.25977 424.22382 285.97442 426.07031 284.90039 C 427.9168 283.82636 429.06716 282.29252 429.70898 281.24805 A 7.50075 7.50075 0 0 0 428.11523 271.55664 L 427.23438 270.82422 C 428.37092 270.66001 429.52595 270.36819 430.74219 269.84961 C 431.36402 269.58447 431.88872 269.0672 432.46875 268.66016 z M 481.22852 269.59375 L 504.54297 269.59375 L 504.54297 269.9668 L 481.22852 269.9668 L 481.22852 269.59375 z M 389.35547 271.02539 L 394.82227 271.02539 C 393.7589 272.02086 392.69808 272.8576 391.60547 273.80859 C 390.83128 272.90823 390.0659 271.99893 389.35547 271.02539 z M 420.72266 271.25977 C 420.72066 271.25977 420.68659 271.27144 420.68359 271.27148 A 7.50075 7.50075 0 0 1 420.98438 271.35547 C 420.63205 271.23847 420.22466 271.25977 420.72266 271.25977 z M 371.32031 278.80664 C 372.63058 282.18356 374.10451 285.33952 375.70117 288.33008 C 372.01717 288.71488 368.38037 289.08331 364.91797 289.42773 L 364.91797 282.875 C 367.08352 281.54992 369.29706 280.27114 371.32031 278.80664 z M 481.22852 288.66992 L 504.54297 288.66992 L 504.54297 289.41211 L 481.22852 289.41211 L 481.22852 288.66992 z M 192.35156 292.7207 A 7.50075 7.50075 0 0 0 192.21875 293.04492 C 192.22275 293.03392 192.16935 292.91362 192.35156 292.7207 z M 481.22852 308.11719 L 504.54297 308.11719 L 504.54297 309.04492 L 481.22852 309.04492 L 481.22852 308.11719 z M 376.7207 318.6875 A 7.50075 7.50075 0 0 0 374.52148 319.09961 C 375.03343 318.90746 374.89457 318.99705 374.69727 319.02344 C 374.444 319.05734 374.00825 319.07422 374.20117 319.07422 L 364.76562 319.07422 C 364.34204 319.07422 363.04503 318.97902 362.35742 318.89258 A 7.50075 7.50075 0 0 0 353.92188 326.33398 L 353.92188 330.56641 A 7.50075 7.50075 0 0 0 355.2832 334.86914 A 7.50075 7.50075 0 0 0 350.63672 341.79492 L 350.63672 346.14844 A 7.50075 7.50075 0 0 0 359.01758 353.5957 C 359.5833 353.5288 360.36503 353.49805 361.0918 353.49805 L 381.00977 353.49805 C 381.47598 353.49805 382.75389 353.57707 382.7207 353.57227 A 7.50075 7.50075 0 0 0 391.28711 346.14844 L 391.28711 341.79492 A 7.50075 7.50075 0 0 0 386.49023 334.80078 C 386.74966 333.09102 387.07763 331.16121 387.2207 330.07031 A 7.50075 7.50075 0 0 0 387.22852 330.01953 C 387.09717 331.07814 387.32023 329.71966 387.29883 329.79492 A 7.50075 7.50075 0 0 0 383.45117 321.04297 L 380.3457 319.48242 A 7.50075 7.50075 0 0 0 376.7207 318.6875 z M 289.77734 319.60352 L 290.70508 319.60352 C 290.54572 319.82572 290.3931 320.04784 290.25 320.28125 A 7.50075 7.50075 0 0 0 289.77734 319.60352 z M 236.6582 325.83008 A 7.50075 7.50075 0 0 0 229.28125 333.32812 L 229.28125 338.04297 A 7.50075 7.50075 0 0 0 237.39062 345.51758 C 238.03421 345.46508 240.06489 345.39258 241.58984 345.39258 L 257.625 345.39258 C 258.39926 345.39258 259.69194 345.49058 260.80273 345.53711 A 7.50075 7.50075 0 0 0 268.61719 338.04297 L 268.61719 333.32812 A 7.50075 7.50075 0 0 0 260.53906 325.84961 C 259.65001 325.91841 258.55615 326.00977 257.625 326.00977 L 241.58984 326.00977 C 240.33172 326.00977 238.06257 325.90839 237.4082 325.85352 A 7.50075 7.50075 0 0 0 236.6582 325.83008 z M 317.98047 325.83008 A 7.50075 7.50075 0 0 0 310.60352 333.32812 L 310.60352 338.04297 A 7.50075 7.50075 0 0 0 318.71289 345.51758 C 319.35718 345.46508 321.38519 345.39258 322.91016 345.39258 L 338.94531 345.39258 C 339.71958 345.39258 341.01477 345.49058 342.125 345.53711 A 7.50075 7.50075 0 0 0 349.93945 338.04297 L 349.93945 333.32812 A 7.50075 7.50075 0 0 0 341.86133 325.84961 C 340.97324 325.91841 339.87646 326.00977 338.94531 326.00977 L 322.91016 326.00977 C 321.65203 326.00977 319.38559 325.90846 318.73047 325.85352 A 7.50075 7.50075 0 0 0 317.98047 325.83008 z M 399.30078 325.83008 A 7.50075 7.50075 0 0 0 391.92383 333.32812 L 391.92383 338.04297 A 7.50075 7.50075 0 0 0 400.0332 345.51758 C 400.67676 345.46508 402.70746 345.39258 404.23242 345.39258 L 420.26758 345.39258 C 421.04186 345.39258 422.33703 345.49058 423.44727 345.53711 A 7.50075 7.50075 0 0 0 431.26172 338.04297 L 431.26172 333.32812 A 7.50075 7.50075 0 0 0 423.18359 325.84961 C 422.29556 325.91831 421.19871 326.00977 420.26758 326.00977 L 404.23242 326.00977 C 402.97429 326.00977 400.70513 325.90839 400.05078 325.85352 A 7.50075 7.50075 0 0 0 399.30078 325.83008 z M 479.43359 327.75 L 504.54297 327.75 L 504.54297 327.8418 A 7.50075 7.50075 0 0 0 504.55664 328.12109 L 479.20312 328.12109 C 479.28152 327.99616 479.36131 327.87245 479.43359 327.75 z M 189.74609 338.02148 A 7.50075 7.50075 0 0 0 191.49219 339.74219 A 7.50075 7.50075 0 0 0 189.74609 343.08398 L 189.74609 338.02148 z M 298.10352 340.23828 L 297.9043 340.31445 C 297.9577 340.29495 298.0031 340.27175 298.05664 340.25195 C 298.06974 340.24695 298.09042 340.24398 298.10352 340.23828 z M 664.85352 352.29102 C 665.09439 352.31292 665.0452 352.40499 665.04102 352.42188 L 664.73828 352.42188 L 664.60938 352.42188 A 7.50075 7.50075 0 0 0 664.60547 352.42188 L 664.60547 352.33984 C 664.68806 352.32348 664.82331 352.28826 664.85352 352.29102 z "
       id="path1230" />
    <text
       transform="scale(0.98845143,1.0116835)"
       id="text1272"
       y="251.34579"
       x="493.95483"
       style="color:#000000;font-style:normal;font-variant:normal;font-weight:bold;font-stretch:normal;font-size:143.8241272px;line-height:125%;font-family:'Kozuka Mincho Pro';-inkscape-font-specification:'Kozuka Mincho Pro Bold';text-indent:0;text-align:center;text-decoration:none;text-decoration-line:none;letter-spacing:normal;word-spacing:normal;text-transform:none;writing-mode:lr-tb;direction:ltr;baseline-shift:baseline;text-anchor:middle;clip-rule:nonzero;display:inline;overflow:visible;visibility:visible;opacity:1;isolation:auto;mix-blend-mode:normal;color-interpolation:sRGB;color-interpolation-filters:linearRGB;solid-color:#000000;solid-opacity:1;vector-effect:none;fill:#fbfeff;fill-opacity:1;fill-rule:evenodd;stroke:#f30000;stroke-width:0.5;stroke-linecap:round;stroke-linejoin:round;stroke-miterlimit:4;stroke-dasharray:none;stroke-dashoffset:0;stroke-opacity:1;marker:none;paint-order:markers stroke fill;color-rendering:auto;image-rendering:auto;shape-rendering:auto;text-rendering:auto;enable-background:accumulate"
       xml:space="preserve"><tspan
         style="font-style:normal;font-variant:normal;font-weight:bold;font-stretch:normal;font-family:'Kozuka Mincho Pro';-inkscape-font-specification:'Kozuka Mincho Pro Bold';fill:#fbfeff;fill-opacity:1;stroke-width:0.5"
         y="395.88904"
         x="493.95483"
         id="tspan1270"
         sodipodi:role="line" /></text>
  </g>
  <g
     inkscape:groupmode="layer"
     id="layer2"
     inkscape:label="logo"
     style="display:inline">
    <g
       id="g1210"
       style="fill:url(#linearGradient1218);fill-opacity:1">
      <path
         d="m 287.68387,309.22898 h -12.61148 v -28.02566 h 22.62648 c 3.33834,0 4.94568,-0.57488 5.93481,-2.44326 l -12.73512,-11.64143 -6.80031,11.35398 h -9.02586 v -26.87588 h 12.3642 v 9.19816 c 9.76771,0 12.85876,-4.45536 12.85876,-4.59908 v -56.19505 c 2.59648,-0.57488 4.32747,-1.86837 5.19296,-3.01814 l -13.97154,-11.64144 -5.3166,7.90468 h -35.48524 l -13.35332,-6.46747 v 75.88488 c 10.88048,0 12.61147,-5.31769 12.61147,-5.60514 v -5.4614 h 12.11691 v 26.87588 h -26.70666 l 0.61822,2.73071 h 26.08844 v 28.02566 h -38.45264 l 0.61822,2.87444 h 78.14169 c 3.46198,0 5.06932,-0.71861 6.05846,-2.587 l -13.47698,-12.50375 z m -25.59388,-88.2449 h -12.11691 v -24.86379 h 12.11691 z m 25.3466,0 h -12.3642 v -24.86379 h 12.3642 z m -37.46351,2.87442 h 12.11691 v 24.86379 h -12.11691 z m 25.09931,0 h 12.3642 v 24.86379 h -12.3642 z m -57.74077,15.66563 h 11.25141 c 3.21469,0 4.82204,-0.57489 5.81117,-2.44326 l -10.26228,-10.63538 -5.56388,10.20422 h -1.23642 v -37.22383 h 12.36419 c 3.21468,0 4.94567,-0.71861 5.93481,-2.58699 l -12.24055,-11.35398 -6.67667,11.06654 h -26.45936 l 0.74184,2.87443 h 13.47698 v 37.22383 h -13.10605 l 0.74185,2.87442 h 12.3642 v 38.51732 c -6.30574,1.43721 -11.4987,2.58699 -14.7134,3.16187 l 6.30574,17.96517 c 1.36006,-0.43117 2.59649,-1.86838 3.2147,-3.59304 16.44437,-9.91677 28.19035,-17.82144 35.73251,-23.42658 l -0.37093,-1.58093 c -5.81116,1.58093 -11.74598,3.01815 -17.30986,4.45537 z"
         style="color:#000000;font-style:normal;font-variant:normal;font-weight:bold;font-stretch:normal;font-size:medium;line-height:125%;font-family:'Kozuka Mincho Pro';-inkscape-font-specification:'Kozuka Mincho Pro Bold';text-indent:0;text-align:center;text-decoration:none;text-decoration-line:none;letter-spacing:normal;word-spacing:normal;text-transform:none;writing-mode:lr-tb;direction:ltr;baseline-shift:baseline;text-anchor:middle;clip-rule:nonzero;visibility:visible;isolation:auto;mix-blend-mode:normal;color-interpolation:sRGB;color-interpolation-filters:linearRGB;solid-color:#000000;solid-opacity:1;fill:url(#linearGradient1218);fill-opacity:1;fill-rule:evenodd;stroke:none;stroke-width:0.5;stroke-linecap:round;stroke-linejoin:round;stroke-miterlimit:4;stroke-dasharray:none;stroke-dashoffset:0;stroke-opacity:1;marker:none;paint-order:markers stroke fill;color-rendering:auto;image-rendering:auto;shape-rendering:auto;text-rendering:auto"
         id="path895"
         inkscape:connector-curvature="0" />
      <path
         d="m 377.32427,263.5256 h 46.48937 c 3.58561,0 5.06932,-0.71861 5.93481,-2.44326 l -12.85875,-11.21027 -6.92395,10.77911 h -31.28141 v -9.77306 c 3.33833,-0.57489 4.4511,-1.43722 4.57475,-3.30559 l -17.80444,-1.86838 v 14.94703 h -50.81683 l 0.61821,2.87442 h 42.16189 c -10.26228,11.06654 -26.08845,21.41448 -43.76924,28.02566 l 0.74185,2.29954 c 10.6332,-2.29954 20.89548,-5.17396 30.29228,-9.05444 v 14.22841 c -6.67667,0.57489 -12.11692,1.00605 -15.94981,1.14976 l 7.66579,17.10285 c 1.36007,-0.28744 2.59649,-1.43722 3.2147,-3.30559 23.49196,-7.32979 38.9472,-12.93492 49.5804,-17.39029 l -0.12363,-1.14976 c 8.03672,9.91676 18.42264,16.67168 30.78683,21.84564 1.60736,-7.32979 5.31661,-12.21632 10.75685,-13.65353 v -1.72466 c -13.47697,-2.7307 -26.21208,-7.4735 -36.47436,-15.37818 8.90221,-2.01209 18.42264,-5.17396 24.4811,-8.0484 0.86549,0.28745 1.60735,0.28745 2.10191,0.28745 1.36006,0 1.97827,-0.43117 2.59648,-1.43722 L 409.8421,266.11258 c -3.95654,5.17397 -11.74598,12.7912 -18.66993,17.96516 -6.05845,-5.31768 -10.88049,-11.92887 -14.34247,-20.12098 z m -19.90635,15.23446 c 6.67667,-3.73675 12.61148,-7.90467 17.55715,-12.7912 3.09106,11.78515 7.66581,20.98332 13.47698,28.60054 -11.00414,1.14978 -21.63734,2.29955 -31.03413,3.16187 z M 355.31601,187.497 c 3.70925,-0.57488 4.6984,-1.72464 4.94567,-3.73675 l -17.43351,-1.72465 v 38.94848 c -11.62234,3.73676 -22.87376,7.18607 -27.94307,8.47955 l 8.53129,15.66563 c 1.23642,-0.43116 2.3492,-1.86837 2.72012,-3.73676 7.04759,-6.32373 12.61148,-11.78514 16.69166,-15.95306 v 26.30101 c 10.50957,0 12.48784,-3.59303 12.48784,-4.0242 z m 3.46197,23.28286 h 25.71753 v 29.75032 h -23.98654 l 0.61821,2.73071 h 60.58455 c 3.33833,0 4.94567,-0.57489 5.93481,-2.44326 l -12.9824,-11.354 -7.04759,11.06655 h -9.89136 v -29.75032 h 26.70666 c 3.21469,0 4.94568,-0.7186 5.81117,-2.58698 l -12.9824,-11.06654 -6.92395,10.7791 h -12.61148 v -20.26471 c 3.58562,-0.71861 4.69839,-1.58094 4.94568,-3.59303 l -18.17536,-2.0121 v 25.86984 H 358.03613 Z M 320.2017,190.94631 c 3.33833,4.88653 5.93481,12.93493 5.68753,19.40239 1.60735,2.58698 3.58561,3.59303 5.56389,3.59303 3.58562,0 6.92395,-3.44931 6.92395,-8.04839 0,-5.17397 -4.20383,-11.64143 -17.06259,-15.80935 z"
         style="color:#000000;font-style:normal;font-variant:normal;font-weight:bold;font-stretch:normal;font-size:medium;line-height:125%;font-family:'Kozuka Mincho Pro';-inkscape-font-specification:'Kozuka Mincho Pro Bold';text-indent:0;text-align:center;text-decoration:none;text-decoration-line:none;letter-spacing:normal;word-spacing:normal;text-transform:none;writing-mode:lr-tb;direction:ltr;baseline-shift:baseline;text-anchor:middle;clip-rule:nonzero;visibility:visible;isolation:auto;mix-blend-mode:normal;color-interpolation:sRGB;color-interpolation-filters:linearRGB;solid-color:#000000;solid-opacity:1;fill:url(#linearGradient1218);fill-opacity:1;fill-rule:evenodd;stroke:none;stroke-width:0.5;stroke-linecap:round;stroke-linejoin:round;stroke-miterlimit:4;stroke-dasharray:none;stroke-dashoffset:0;stroke-opacity:1;marker:none;paint-order:markers stroke fill;color-rendering:auto;image-rendering:auto;shape-rendering:auto;text-rendering:auto"
         id="path897"
         inkscape:connector-curvature="0" />
      <path
         d="m 461.81312,250.24054 v 78.89868 c 9.929,0 11.91479,-6.48228 11.91479,-6.8527 v -2.03729 h 38.31427 v 7.59353 c 8.76088,0 12.14842,-5.37103 12.14842,-5.55624 v -55.19204 c 2.33623,-0.74083 3.9716,-2.40771 4.78928,-3.88937 l -13.31654,-14.81666 -4.78928,10.00126 h -20.90931 l 2.21943,-16.66875 h 43.57078 c 3.27073,0 4.67247,-0.74082 5.49016,-3.14853 l -11.9148,-12.22374 c 1.51855,-0.74084 2.68667,-1.66688 2.68667,-2.2225 v -26.48477 c 2.33623,-0.92604 4.08841,-2.4077 4.78928,-3.88937 l -13.43336,-14.81665 -4.67246,10.00124 h -64.36329 l -12.9661,-7.96396 v 49.08017 c 10.04581,0 11.9148,-6.29707 11.9148,-6.6675 v -2.22249 h 28.03482 l -0.35043,16.85394 h -48.82732 l 0.58406,3.70416 h 48.24326 c -0.23363,6.11187 -0.35044,12.03854 -0.46725,16.66875 h -6.07422 z m 31.88961,-32.78184 h -14.95191 v -24.8179 h 14.95191 z m 26.16583,0 h -15.06872 v -24.8179 h 15.06872 z m -52.09805,-24.8179 v 24.8179 h -14.48465 v -24.8179 z m 28.38527,28.52206 h 23.71278 v 7.40833 c 3.15392,0 4.55566,0 8.76089,-1.85209 l -6.07421,11.2977 h -29.90381 c 0.58405,-4.07458 1.0513,-7.77874 1.40174,-11.11249 3.0371,-0.74083 4.32203,-2.40771 4.55565,-5.37103 l -2.45304,-0.18521 z m 15.8864,60.00745 V 296.913 h -38.31427 v -15.74269 z m 0,-3.70417 h -38.31427 v -15.37228 h 38.31427 z m -38.31427,23.15102 h 38.31427 v 15.9279 h -38.31427 z m -21.9606,35.00434 v -72.04597 c 3.0371,-0.74083 3.85479,-1.85208 3.97159,-4.25979 l -15.76958,-2.03728 v 94.08574 c 9.69538,0 11.79799,-5.00062 11.79799,-5.18583 v -6.8527 h 83.75403 c 3.27073,0 4.78928,-0.92604 5.72378,-3.33374 l -12.73249,-14.26104 -6.77508,13.89061 z"
         style="color:#000000;font-style:normal;font-variant:normal;font-weight:bold;font-stretch:normal;font-size:medium;line-height:125%;font-family:'Kozuka Mincho Pro';-inkscape-font-specification:'Kozuka Mincho Pro Bold';text-indent:0;text-align:center;text-decoration:none;text-decoration-line:none;letter-spacing:normal;word-spacing:normal;text-transform:none;writing-mode:lr-tb;direction:ltr;baseline-shift:baseline;text-anchor:middle;clip-rule:nonzero;visibility:visible;isolation:auto;mix-blend-mode:normal;color-interpolation:sRGB;color-interpolation-filters:linearRGB;solid-color:#000000;solid-opacity:1;fill:url(#linearGradient1218);fill-opacity:1;fill-rule:evenodd;stroke:none;stroke-width:0.5;stroke-linecap:round;stroke-linejoin:round;stroke-miterlimit:4;stroke-dasharray:none;stroke-dashoffset:0;stroke-opacity:1;marker:none;paint-order:markers stroke fill;color-rendering:auto;image-rendering:auto;shape-rendering:auto;text-rendering:auto"
         id="path892"
         inkscape:connector-curvature="0" />
      <path
         d="m 202.60043,323.45142 -2.17984,3.3025 c 1.97082,1.11085 5.07635,3.15239 6.74855,4.32328 l 2.23956,-3.33252 c -1.55276,-1.08082 -4.83746,-3.18242 -6.80827,-4.29326 z m -5.55411,21.31616 2.23957,3.963 c 2.65761,-0.48037 6.92771,-1.9815 9.97351,-3.72282 4.89717,-2.82213 9.10755,-6.63503 11.8846,-10.77817 l -2.29928,-4.0831 c -2.38887,4.29326 -6.53952,8.40638 -11.61586,11.25854 -3.25483,1.77134 -6.83812,2.79212 -10.18254,3.36255 z m 0.95554,-14.47097 -2.17983,3.33253 c 2.03054,1.0508 5.1062,3.09234 6.80826,4.26323 l 2.17985,-3.36255 c -1.52291,-1.08082 -4.80759,-3.15239 -6.80828,-4.23321 z"
         style="color:#000000;font-style:normal;font-variant:normal;font-weight:bold;font-stretch:normal;font-size:medium;line-height:125%;font-family:'Noto Sans CJK JP';-inkscape-font-specification:'Noto Sans CJK JP Bold';text-indent:0;text-align:start;text-decoration:none;text-decoration-line:none;letter-spacing:10.82915497px;word-spacing:normal;text-transform:none;writing-mode:lr-tb;direction:ltr;baseline-shift:baseline;text-anchor:start;clip-rule:nonzero;visibility:visible;isolation:auto;mix-blend-mode:normal;color-interpolation:sRGB;color-interpolation-filters:linearRGB;solid-color:#000000;solid-opacity:1;fill:url(#linearGradient1218);fill-opacity:1;fill-rule:evenodd;stroke:none;stroke-width:0.49999997;stroke-linecap:round;stroke-linejoin:miter;stroke-miterlimit:4;stroke-dasharray:none;stroke-dashoffset:0;stroke-opacity:1;marker:none;paint-order:markers stroke fill;color-rendering:auto;image-rendering:auto;shape-rendering:auto;text-rendering:auto"
         id="path903"
         inkscape:connector-curvature="0" />
      <path
         d="m 236.78136,338.04248 c 1.10485,-0.0901 3.10553,-0.15011 4.80759,-0.15011 h 16.03526 c 1.25415,0 2.77706,0.12009 3.49372,0.15011 v -4.71357 c -0.77639,0.0601 -2.12012,0.18013 -3.49372,0.18013 h -16.03526 c -1.55276,0 -3.7326,-0.09 -4.80759,-0.18013 z"
         style="color:#000000;font-style:normal;font-variant:normal;font-weight:bold;font-stretch:normal;font-size:medium;line-height:125%;font-family:'Noto Sans CJK JP';-inkscape-font-specification:'Noto Sans CJK JP Bold';text-indent:0;text-align:start;text-decoration:none;text-decoration-line:none;letter-spacing:10.82915497px;word-spacing:normal;text-transform:none;writing-mode:lr-tb;direction:ltr;baseline-shift:baseline;text-anchor:start;clip-rule:nonzero;visibility:visible;isolation:auto;mix-blend-mode:normal;color-interpolation:sRGB;color-interpolation-filters:linearRGB;solid-color:#000000;solid-opacity:1;fill:url(#linearGradient1218);fill-opacity:1;fill-rule:evenodd;stroke:none;stroke-width:0.49999997;stroke-linecap:round;stroke-linejoin:miter;stroke-miterlimit:4;stroke-dasharray:none;stroke-dashoffset:0;stroke-opacity:1;marker:none;paint-order:markers stroke fill;color-rendering:auto;image-rendering:auto;shape-rendering:auto;text-rendering:auto"
         id="path905"
         inkscape:connector-curvature="0" />
      <path
         d="m 299.50922,327.6546 c -0.92568,0 -1.70206,-0.78059 -1.70206,-1.74131 0,-0.96074 0.77638,-1.74132 1.70206,-1.74132 0.95556,0 1.73193,0.78058 1.73193,1.74132 0,0.96072 -0.77637,1.74131 -1.73193,1.74131 z m -15.88595,-0.33024 c 0,-0.84064 0.0896,-2.19167 0.23889,-3.12237 h -4.4194 c 0.1493,0.9307 0.23889,2.46187 0.23889,3.12237 v 16.3624 c 0,2.58195 1.49303,4.02305 4.09093,4.47339 1.28401,0.21016 3.07566,0.36027 5.01661,0.36027 3.28469,0 7.82354,-0.21015 10.63046,-0.63048 v -4.38332 c -2.44859,0.66051 -7.28604,1.0508 -10.39157,1.0508 -1.34373,0 -2.56803,-0.0601 -3.46385,-0.18013 -1.34374,-0.27021 -1.94096,-0.60047 -1.94096,-1.89144 v -5.55421 c 3.88191,-0.96073 8.6895,-2.46187 11.70544,-3.66278 0.98541,-0.36027 2.32915,-0.9307 3.49371,-1.41107 l -1.22428,-2.9122 c 0.53749,0.36027 1.19442,0.57043 1.91108,0.57043 1.97082,0 3.5833,-1.62123 3.5833,-3.60273 0,-1.9815 -1.61248,-3.60273 -3.5833,-3.60273 -1.97081,0 -3.55343,1.62123 -3.55343,3.60273 0,0.90068 0.32847,1.74131 0.86596,2.3718 -1.01527,0.60045 -1.91109,1.02077 -2.86664,1.38104 -2.65761,1.14087 -6.80826,2.46186 -10.33184,3.33252 z"
         style="color:#000000;font-style:normal;font-variant:normal;font-weight:bold;font-stretch:normal;font-size:medium;line-height:125%;font-family:'Noto Sans CJK JP';-inkscape-font-specification:'Noto Sans CJK JP Bold';text-indent:0;text-align:start;text-decoration:none;text-decoration-line:none;letter-spacing:10.82915497px;word-spacing:normal;text-transform:none;writing-mode:lr-tb;direction:ltr;baseline-shift:baseline;text-anchor:start;clip-rule:nonzero;visibility:visible;isolation:auto;mix-blend-mode:normal;color-interpolation:sRGB;color-interpolation-filters:linearRGB;solid-color:#000000;solid-opacity:1;fill:url(#linearGradient1218);fill-opacity:1;fill-rule:evenodd;stroke:none;stroke-width:0.49999997;stroke-linecap:round;stroke-linejoin:miter;stroke-miterlimit:4;stroke-dasharray:none;stroke-dashoffset:0;stroke-opacity:1;marker:none;paint-order:markers stroke fill;color-rendering:auto;image-rendering:auto;shape-rendering:auto;text-rendering:auto"
         id="path907"
         inkscape:connector-curvature="0" />
      <path
         d="m 318.10281,338.04248 c 1.10485,-0.0901 3.10552,-0.15011 4.80759,-0.15011 h 16.03526 c 1.25415,0 2.77706,0.12009 3.49372,0.15011 v -4.71357 c -0.77639,0.0601 -2.12012,0.18013 -3.49372,0.18013 H 322.9104 c -1.55276,0 -3.7326,-0.09 -4.80759,-0.18013 z"
         style="color:#000000;font-style:normal;font-variant:normal;font-weight:bold;font-stretch:normal;font-size:medium;line-height:125%;font-family:'Noto Sans CJK JP';-inkscape-font-specification:'Noto Sans CJK JP Bold';text-indent:0;text-align:start;text-decoration:none;text-decoration-line:none;letter-spacing:10.82915497px;word-spacing:normal;text-transform:none;writing-mode:lr-tb;direction:ltr;baseline-shift:baseline;text-anchor:start;clip-rule:nonzero;visibility:visible;isolation:auto;mix-blend-mode:normal;color-interpolation:sRGB;color-interpolation-filters:linearRGB;solid-color:#000000;solid-opacity:1;fill:url(#linearGradient1218);fill-opacity:1;fill-rule:evenodd;stroke:none;stroke-width:0.49999997;stroke-linecap:round;stroke-linejoin:miter;stroke-miterlimit:4;stroke-dasharray:none;stroke-dashoffset:0;stroke-opacity:1;marker:none;paint-order:markers stroke fill;color-rendering:auto;image-rendering:auto;shape-rendering:auto;text-rendering:auto"
         id="path909"
         inkscape:connector-curvature="0" />
      <path
         d="m 377.78487,342.03551 c 0.56736,-3.36255 1.64235,-10.20774 2.00068,-12.93982 0.0298,-0.24017 0.17916,-0.9307 0.2986,-1.35101 l -3.10552,-1.56119 c -0.50764,0.21016 -2.00067,0.39029 -2.77706,0.39029 h -9.43602 c -1.01526,0 -2.38886,-0.12008 -3.3444,-0.24018 v 4.23322 c 1.07499,-0.0901 2.17983,-0.1201 3.37427,-0.1201 h 10.30197 c -0.0597,1.95148 -1.10485,8.3163 -1.6722,11.58879 h -12.33251 c -0.92569,0 -2.00068,-0.09 -2.95623,-0.24019 v 4.35331 c 1.01527,-0.1201 2.0604,-0.15012 2.95623,-0.15012 h 19.91716 c 0.6868,0 1.94096,0.03 2.77705,0.15012 v -4.35331 c -0.77638,0.0901 -1.73192,0.24019 -2.77705,0.24019 z"
         style="color:#000000;font-style:normal;font-variant:normal;font-weight:bold;font-stretch:normal;font-size:medium;line-height:125%;font-family:'Noto Sans CJK JP';-inkscape-font-specification:'Noto Sans CJK JP Bold';text-indent:0;text-align:start;text-decoration:none;text-decoration-line:none;letter-spacing:10.82915497px;word-spacing:normal;text-transform:none;writing-mode:lr-tb;direction:ltr;baseline-shift:baseline;text-anchor:start;clip-rule:nonzero;visibility:visible;isolation:auto;mix-blend-mode:normal;color-interpolation:sRGB;color-interpolation-filters:linearRGB;solid-color:#000000;solid-opacity:1;fill:url(#linearGradient1218);fill-opacity:1;fill-rule:evenodd;stroke:none;stroke-width:0.49999997;stroke-linecap:round;stroke-linejoin:miter;stroke-miterlimit:4;stroke-dasharray:none;stroke-dashoffset:0;stroke-opacity:1;marker:none;paint-order:markers stroke fill;color-rendering:auto;image-rendering:auto;shape-rendering:auto;text-rendering:auto"
         id="path911"
         inkscape:connector-curvature="0" />
      <path
         d="m 399.42426,338.04248 c 1.10484,-0.0901 3.10552,-0.15011 4.80759,-0.15011 h 16.03525 c 1.25416,0 2.77705,0.12009 3.49371,0.15011 v -4.71357 c -0.77637,0.0601 -2.12012,0.18013 -3.49371,0.18013 h -16.03525 c -1.55277,0 -3.73261,-0.09 -4.80759,-0.18013 z"
         style="color:#000000;font-style:normal;font-variant:normal;font-weight:bold;font-stretch:normal;font-size:medium;line-height:125%;font-family:'Noto Sans CJK JP';-inkscape-font-specification:'Noto Sans CJK JP Bold';text-indent:0;text-align:start;text-decoration:none;text-decoration-line:none;letter-spacing:10.82915497px;word-spacing:normal;text-transform:none;writing-mode:lr-tb;direction:ltr;baseline-shift:baseline;text-anchor:start;clip-rule:nonzero;visibility:visible;isolation:auto;mix-blend-mode:normal;color-interpolation:sRGB;color-interpolation-filters:linearRGB;solid-color:#000000;solid-opacity:1;fill:url(#linearGradient1218);fill-opacity:1;fill-rule:evenodd;stroke:none;stroke-width:0.49999997;stroke-linecap:round;stroke-linejoin:miter;stroke-miterlimit:4;stroke-dasharray:none;stroke-dashoffset:0;stroke-opacity:1;marker:none;paint-order:markers stroke fill;color-rendering:auto;image-rendering:auto;shape-rendering:auto;text-rendering:auto"
         id="path913"
         inkscape:connector-curvature="0" />
      <rect
         y="186.65106"
         x="44.375"
         height="160.17712"
         width="137.87099"
         id="rect1198"
         style="color:#000000;clip-rule:nonzero;display:inline;overflow:visible;visibility:visible;opacity:1;isolation:auto;mix-blend-mode:normal;color-interpolation:sRGB;color-interpolation-filters:linearRGB;solid-color:#000000;solid-opacity:1;vector-effect:none;fill:url(#linearGradient1218);fill-opacity:1;fill-rule:evenodd;stroke:none;stroke-width:0.5;stroke-linecap:round;stroke-linejoin:miter;stroke-miterlimit:4;stroke-dasharray:none;stroke-dashoffset:0;stroke-opacity:1;marker:none;paint-order:markers stroke fill;color-rendering:auto;image-rendering:auto;shape-rendering:auto;text-rendering:auto;enable-background:accumulate" />
      <path
         d="m 99.786834,59.535785 c 4.975366,-0.556312 9.213636,2.596121 9.213636,5.192242 0,2.966996 -3.13264,5.37768 -8.66082,7.788364 -10.503539,4.821368 -25.429625,12.05342 -34.090441,16.689351 -3.869727,-0.927186 -7.739452,-6.675741 -8.107999,-12.795169 -0.184272,-3.33787 -0.368545,-7.232052 -0.368545,-11.126234 0,-6.861177 0.368545,-14.093229 1.474182,-20.398096 0.737091,-4.63593 3.316908,-8.344675 3.316908,-11.126234 0,-7.417488 -10.134998,-13.722354 -20.822813,-13.722354 -4.422543,0 -9.582178,3.152432 -11.240633,7.417489 l 0.368545,1.112623 c 1.28991,-0.370874 2.579818,-0.370874 3.685454,-0.370874 9.950725,0 9.950725,7.046615 9.950725,10.940796 0,1.854373 -0.368545,10.199048 -0.368545,11.867984 0,23.179653 0,37.643758 11.793451,43.763186 -20.63854,12.053411 -38.881535,28.928201 -38.881535,45.617561 0,24.84859 21.191358,33.19326 56.203166,33.19326 19.717177,0 35.38035,-1.48349 44.40971,-2.59612 9.21363,-1.29806 16.76882,-3.15243 16.76882,-7.78836 0,-6.67574 -9.21363,-8.15925 -20.08572,-9.27186 -4.42255,3.52331 -21.007088,6.30486 -41.829901,6.30486 -24.692538,0 -44.778259,-1.66893 -44.778259,-20.95441 0,-24.84859 47.358077,-47.101053 86.9767,-57.856412 8.47654,-2.039809 14.00472,-3.894181 14.00472,-9.828174 0,-6.861177 -10.87208,-17.616536 -19.71717,-17.616536 -4.23827,0 -8.47654,2.03981 -9.950725,4.821368 z"
         style="color:#000000;font-style:normal;font-variant:normal;font-weight:500;font-stretch:normal;font-size:medium;line-height:125%;font-family:'Kozuka Mincho Pro';-inkscape-font-specification:'Kozuka Mincho Pro Medium';text-indent:0;text-align:center;text-decoration:none;text-decoration-line:none;letter-spacing:normal;word-spacing:normal;text-transform:none;writing-mode:lr-tb;direction:ltr;baseline-shift:baseline;text-anchor:middle;clip-rule:nonzero;visibility:visible;isolation:auto;mix-blend-mode:normal;color-interpolation:sRGB;color-interpolation-filters:linearRGB;solid-color:#000000;solid-opacity:1;fill:url(#linearGradient1218);fill-opacity:1;fill-rule:evenodd;stroke:none;stroke-width:0.5;stroke-linecap:round;stroke-linejoin:round;stroke-miterlimit:4;stroke-dasharray:none;stroke-dashoffset:0;stroke-opacity:1;marker:none;paint-order:markers stroke fill;color-rendering:auto;image-rendering:auto;shape-rendering:auto;text-rendering:auto"
         id="path874"
         inkscape:connector-curvature="0" />
      <path
         d="m 200.6818,78.826492 c -1.02528,5.337681 -17.65761,8.122558 -24.15106,8.934813 0.45569,-2.784876 0.79745,-5.221643 1.25313,-7.194264 0.5696,-2.552804 2.73408,-4.409389 2.73408,-6.265973 0,-3.713169 -5.696,-7.194265 -14.24,-7.194265 -3.64545,0 -7.40481,2.320731 -8.77185,5.337681 l 0.22784,0.580182 c 7.06304,-0.580182 8.20225,1.392439 8.20225,5.917864 0,2.088656 -0.11393,6.265972 -0.22785,10.095177 -2.73408,0.116036 -5.92384,0.34811 -8.43009,0.34811 -6.60735,0 -11.05024,-1.276402 -13.55648,-3.945242 l -1.02528,1.044328 c 1.59488,5.917863 6.94913,11.37158 16.29057,11.37158 2.05056,0 4.32896,-0.116036 6.49344,-0.232073 -0.11392,5.33768 -0.11392,11.25554 -0.22784,16.94134 -17.31585,7.42634 -27.91041,21.11864 -27.91041,35.04302 0,8.70275 7.06304,12.53195 13.1008,12.53195 8.65793,0 16.63233,-3.71317 23.69538,-9.05085 1.93664,2.66884 4.10112,3.71317 5.46816,3.71317 3.75936,0 4.89856,-4.40939 4.89856,-6.61408 0,-1.62451 -0.79744,-3.01695 -1.82272,-4.87354 10.59457,-11.25554 16.74625,-24.71578 16.74625,-30.28553 v -0.9283 c 11.73377,3.01695 17.54369,11.83573 17.54369,23.43939 -0.11391,14.27249 -12.07552,26.92047 -37.59362,30.63364 l 0.68352,2.20469 c 35.99874,-3.24902 50.12483,-15.08474 50.12483,-32.25815 0,-15.78097 -13.10081,-26.22425 -31.55586,-28.42895 -0.79744,-2.5528 -2.62016,-4.64146 -5.58208,-6.26597 l -0.91137,0.69622 c 0.68352,1.50847 1.02528,3.13298 0.91137,5.1056 -4.44288,0 -10.48064,0 -18.68289,2.5528 0.22784,-5.45371 0.45568,-10.67535 0.91136,-14.736633 7.51872,-0.812255 16.17664,-2.088656 23.12577,-3.597132 10.48065,-2.204694 17.42978,-3.713169 17.42978,-8.00652 0,-4.525425 -8.99969,-6.265972 -14.6957,-6.962192 z m -11.16417,34.114738 c 0.79745,0 1.93664,0 2.96192,0.11604 -1.82271,7.07823 -7.74656,17.28944 -14.69568,24.01956 -3.4176,-7.77445 -3.4176,-16.36115 -3.4176,-21.23469 4.44288,-1.6245 10.70848,-2.90091 15.15136,-2.90091 z m -41.69474,31.79401 c 0,-8.81877 6.37952,-17.52152 17.42977,-24.25164 0,9.515 0.91136,17.28945 3.64544,24.36768 -4.89856,3.71317 -10.02496,6.14993 -14.12608,6.14993 -5.35425,0 -6.94913,-1.50847 -6.94913,-6.26597 z"
         style="color:#000000;font-style:normal;font-variant:normal;font-weight:bold;font-stretch:normal;font-size:medium;line-height:125%;font-family:'Kozuka Mincho Pro';-inkscape-font-specification:'Kozuka Mincho Pro Bold';text-indent:0;text-align:center;text-decoration:none;text-decoration-line:none;letter-spacing:normal;word-spacing:normal;text-transform:none;writing-mode:lr-tb;direction:ltr;baseline-shift:baseline;text-anchor:middle;clip-rule:nonzero;visibility:visible;isolation:auto;mix-blend-mode:normal;color-interpolation:sRGB;color-interpolation-filters:linearRGB;solid-color:#000000;solid-opacity:1;fill:url(#linearGradient1218);fill-opacity:1;fill-rule:evenodd;stroke:none;stroke-width:0.5;stroke-linecap:round;stroke-linejoin:round;stroke-miterlimit:4;stroke-dasharray:none;stroke-dashoffset:0;stroke-opacity:1;marker:none;paint-order:markers stroke fill;color-rendering:auto;image-rendering:auto;shape-rendering:auto;text-rendering:auto"
         id="path877"
         inkscape:connector-curvature="0" />
      <path
         d="m 237.61774,88.955466 c 7.00851,-7.093864 17.17085,-16.58084 26.54472,-22.820022 3.24144,-2.136706 6.39526,-2.393112 6.39526,-5.042628 0,-2.478579 -5.51919,-7.179332 -9.63669,-7.179332 -1.22649,0 -2.19016,1.709364 -3.94229,2.393111 -3.24143,1.196555 -16.29477,3.589667 -22.1644,3.589667 -3.32903,0 -5.43159,-1.709366 -5.34398,-4.957159 l -0.43803,-0.170936 c -1.75213,1.025618 -2.62819,3.333261 -2.62819,4.87169 0,4.444348 4.29271,8.974166 8.49781,8.974166 2.01495,0 2.54058,-0.854683 4.55553,-2.051238 4.99356,-2.905921 16.82041,-5.555436 18.13451,-5.555436 0.52563,0 0.78846,0.170936 0.78846,0.427341 0,0.256404 -0.17522,0.512809 -0.61325,0.940151 -10.42515,10.085252 -27.15796,26.409688 -34.51689,33.332617 -2.27777,2.136706 -4.64314,4.273413 -4.64314,7.777612 0,1.36749 1.57692,4.70075 4.29271,4.70075 2.54059,0 3.85468,-2.64952 5.34399,-4.70075 10.95079,-15.21335 27.07035,-16.495374 30.22419,-16.495374 9.72429,0 14.54264,5.3845 14.54264,15.042414 0,5.8973 -3.59186,11.79462 -9.28627,13.84586 0.26282,-0.59828 0.43803,-1.62391 0.43803,-2.30765 -0.26281,-6.58105 -8.4102,-11.36727 -15.59392,-11.36727 -8.32261,0 -13.66659,5.38449 -13.66659,10.51259 0,6.752 6.74568,11.70915 18.30973,11.70915 17.87169,0 28.82247,-8.8887 28.82247,-21.45253 0,-10.512596 -5.95723,-19.486762 -22.60243,-19.486762 -6.13244,0 -14.45504,2.307642 -21.20073,5.811841 z m 1.92735,22.820024 c 0.0876,-3.07686 2.45297,-5.1281 6.57047,-5.1281 5.34398,0 9.81191,4.52982 10.33755,9.14511 0.0876,0.68374 0.52563,1.28202 0.87606,1.70936 -1.83974,0.34187 -3.67947,0.51281 -5.16877,0.51281 -6.04484,0 -12.61531,-1.19656 -12.61531,-6.23918 z"
         style="color:#000000;font-style:normal;font-variant:normal;font-weight:bold;font-stretch:normal;font-size:medium;line-height:125%;font-family:'Kozuka Mincho Pro';-inkscape-font-specification:'Kozuka Mincho Pro Bold';text-indent:0;text-align:center;text-decoration:none;text-decoration-line:none;letter-spacing:normal;word-spacing:normal;text-transform:none;writing-mode:lr-tb;direction:ltr;baseline-shift:baseline;text-anchor:middle;clip-rule:nonzero;visibility:visible;isolation:auto;mix-blend-mode:normal;color-interpolation:sRGB;color-interpolation-filters:linearRGB;solid-color:#000000;solid-opacity:1;fill:url(#linearGradient1218);fill-opacity:1;fill-rule:evenodd;stroke:none;stroke-width:0.49999997;stroke-linecap:round;stroke-linejoin:round;stroke-miterlimit:4;stroke-dasharray:none;stroke-dashoffset:0;stroke-opacity:1;marker:none;paint-order:markers stroke fill;color-rendering:auto;image-rendering:auto;shape-rendering:auto;text-rendering:auto"
         id="path880"
         inkscape:connector-curvature="0" />
      <path
         d="m 412.37745,71.990629 -8.18208,13.197291 h -2.57585 V 47.179723 h 10.45489 c 4.24257,0 6.21232,-0.703855 7.42449,-2.991386 l -16.06114,-14.07711 -8.63665,13.725182 H 323.2836 l -2.72736,-1.231746 c 2.87888,-4.223133 5.75777,-8.622231 8.33361,-13.373255 3.788,0.527892 5.45473,-0.527892 6.36385,-2.463495 L 313.73783,15.506225 c -6.96993,22.875305 -18.03089,45.222716 -27.8797,57.716152 l 1.5152,1.583674 c 7.12145,-4.57506 14.24289,-10.205904 20.75826,-17.068495 V 85.18792 h -24.24323 l 0.7576,3.519278 h 23.48563 v 38.360122 h -21.66738 l 0.75759,3.34331 h 130.76189 c 4.24257,0 6.06081,-0.87981 7.27297,-2.99138 l -14.39441,-14.42904 -7.87905,14.07711 h -1.36368 V 88.707198 h 18.48546 c 4.24256,0 6.21232,-0.87982 7.42448,-2.991387 z M 360.55755,85.18792 H 347.82986 V 47.179723 h 12.72769 z m 0,41.8794 H 347.82986 V 88.707198 h 12.72769 z M 333.89001,47.179723 V 85.18792 H 322.22296 V 47.179723 Z m 0,41.527475 V 127.06732 H 322.22296 V 88.707198 Z M 387.07358,85.18792 H 374.64893 V 47.179723 h 12.42465 z m -12.42465,41.8794 V 88.707198 h 12.42465 v 38.360122 z m 11.36402,11.43765 c 10.6064,9.32609 20.90977,25.86669 24.24322,39.76784 2.12128,1.93561 4.24256,2.81542 6.06081,2.81542 4.69712,0 8.3336,-4.92698 8.3336,-11.43765 0,-10.55783 -9.09121,-25.33879 -37.577,-32.55332 z m -75.60856,-0.87981 c -0.90912,12.66939 -10.00033,22.3474 -17.72786,25.51476 -3.33344,2.11156 -6.21232,5.45488 -6.21232,9.67801 0,5.27891 3.788,7.91837 8.63665,7.91837 9.69728,0 19.24305,-10.90975 19.24305,-29.03403 0,-4.22314 -0.60608,-8.97416 -1.66671,-14.07711 z m 46.06212,2.46349 c 5.75777,8.79819 10.45489,23.75512 10.15185,35.0168 1.96976,2.81543 4.24257,4.04717 6.51537,4.04717 4.39408,0 8.33361,-5.10295 8.33361,-11.96553 0,-8.44627 -5.75777,-19.70796 -23.63714,-28.15422 z m -27.12211,0.52789 c 1.06065,4.22313 1.66673,9.85398 1.66673,15.66078 0,5.80682 -0.60608,12.14151 -1.96977,17.24447 1.81825,3.69524 4.39409,5.45487 6.96993,5.45487 4.69713,0 9.69729,-5.63084 9.69729,-13.90114 0,-7.21452 -3.788,-16.36464 -14.54593,-25.3388 z"
         style="color:#000000;font-style:normal;font-variant:normal;font-weight:bold;font-stretch:normal;font-size:medium;line-height:125%;font-family:'Kozuka Mincho Pro';-inkscape-font-specification:'Kozuka Mincho Pro Bold';text-indent:0;text-align:center;text-decoration:none;text-decoration-line:none;letter-spacing:normal;word-spacing:normal;text-transform:none;writing-mode:lr-tb;direction:ltr;baseline-shift:baseline;text-anchor:middle;clip-rule:nonzero;visibility:visible;isolation:auto;mix-blend-mode:normal;color-interpolation:sRGB;color-interpolation-filters:linearRGB;solid-color:#000000;solid-opacity:1;fill:url(#linearGradient1218);fill-opacity:1;fill-rule:evenodd;stroke:none;stroke-width:0.49999994;stroke-linecap:round;stroke-linejoin:round;stroke-miterlimit:4;stroke-dasharray:none;stroke-dashoffset:0;stroke-opacity:1;marker:none;paint-order:markers stroke fill;color-rendering:auto;image-rendering:auto;shape-rendering:auto;text-rendering:auto"
         id="path883"
         inkscape:connector-curvature="0" />
      <path
         d="m 542.51411,93.370402 h -6.41074 V 65.449363 c 3.20537,-0.496375 5.49492,-1.489123 6.41074,-2.481871 l -17.40058,-9.679294 -6.25812,6.70105 h -49.60694 l -17.55323,-5.460114 v 38.841268 h -8.54766 c -0.61055,-1.985492 -1.37374,-3.970992 -2.44219,-6.204675 l -2.28955,0.124094 c 0.45791,5.336023 -4.57911,10.423854 -9.31084,12.409346 -3.66328,1.365033 -6.86866,3.970993 -6.86866,7.073333 0,3.59871 3.358,6.32877 9.00557,6.32877 9.15821,0 12.82149,-6.82515 12.82149,-13.402103 0,-1.240933 0,-2.481867 -0.30527,-3.846897 h 99.97708 c -0.91582,4.34327 -2.13692,10.17567 -3.20537,13.40211 l 1.52636,0.74455 c 5.8002,-2.48186 13.88995,-7.19742 18.46906,-10.42385 3.05273,-0.124096 4.73173,-0.496375 5.80019,-1.489126 L 551.21441,86.297072 Z M 520.38179,62.471118 V 75.500937 H 503.59174 L 487.10697,70.28901 V 93.370402 H 467.26419 V 62.471118 Z m 0,15.387595 V 93.370402 H 502.06537 V 77.858713 Z m -53.1176,30.899287 -17.09532,-5.7083 v 66.14184 c 13.73731,0 16.02686,-4.71555 16.02686,-4.96375 v -22.33682 h 55.10187 v 12.03707 c 0,1.36503 -0.61054,1.73731 -2.44219,1.73731 h -17.40059 v 1.61321 c 10.07403,0.99275 15.11105,2.97824 15.11105,11.91298 19.07959,-1.73731 21.06386,-7.07333 21.06386,-14.89122 v -39.70993 c 3.20538,-0.49638 5.34229,-1.61321 6.25812,-2.48187 l -17.55324,-10.29976 -6.56337,6.94924 z m 54.03341,15.01531 h -55.10187 v -12.53344 h 55.10187 z m -55.10187,2.48188 h 55.10187 v 13.1539 h -55.10187 z"
         style="color:#000000;font-style:normal;font-variant:normal;font-weight:bold;font-stretch:normal;font-size:medium;line-height:125%;font-family:'Kozuka Mincho Pro';-inkscape-font-specification:'Kozuka Mincho Pro Bold';text-indent:0;text-align:center;text-decoration:none;text-decoration-line:none;letter-spacing:normal;word-spacing:normal;text-transform:none;writing-mode:lr-tb;direction:ltr;baseline-shift:baseline;text-anchor:middle;clip-rule:nonzero;visibility:visible;isolation:auto;mix-blend-mode:normal;color-interpolation:sRGB;color-interpolation-filters:linearRGB;solid-color:#000000;solid-opacity:1;fill:url(#linearGradient1218);fill-opacity:1;fill-rule:evenodd;stroke:none;stroke-width:0.49999994;stroke-linecap:round;stroke-linejoin:round;stroke-miterlimit:4;stroke-dasharray:none;stroke-dashoffset:0;stroke-opacity:1;marker:none;paint-order:markers stroke fill;color-rendering:auto;image-rendering:auto;shape-rendering:auto;text-rendering:auto"
         id="path886"
         inkscape:connector-curvature="0" />
      <path
         d="m 624.89936,173.54733 c 50.71897,-4.25841 68.6726,-27.67961 68.6726,-57.94468 0,-32.698442 -21.39473,-55.207135 -58.6485,-55.207135 -40.84449,0 -67.77491,31.177583 -67.77491,64.180195 0,21.29201 9.12642,34.2193 21.84357,34.2193 22.59164,0 42.04139,-44.40905 42.04139,-73.609515 0,-9.581403 -4.78762,-15.512748 -10.0241,-18.098206 3.88995,-1.0646 9.57527,-1.825029 13.46522,-1.825029 30.82038,0 41.74216,21.139922 41.74216,49.57996 0,23.57329 -14.06367,48.0591 -52.0655,55.81547 z m -5.23648,-95.814037 c 0,26.615007 -16.75671,63.876017 -30.22192,63.876017 -5.38608,0 -8.22874,-6.84385 -8.22874,-17.64194 0,-26.158755 13.46521,-48.667449 35.45839,-55.967567 1.64575,1.520858 2.99227,5.170917 2.99227,9.73349 z"
         style="color:#000000;font-style:normal;font-variant:normal;font-weight:bold;font-stretch:normal;font-size:medium;line-height:125%;font-family:'Kozuka Mincho Pro';-inkscape-font-specification:'Kozuka Mincho Pro Bold';text-indent:0;text-align:center;text-decoration:none;text-decoration-line:none;letter-spacing:normal;word-spacing:normal;text-transform:none;writing-mode:lr-tb;direction:ltr;baseline-shift:baseline;text-anchor:middle;clip-rule:nonzero;visibility:visible;isolation:auto;mix-blend-mode:normal;color-interpolation:sRGB;color-interpolation-filters:linearRGB;solid-color:#000000;solid-opacity:1;fill:url(#linearGradient1218);fill-opacity:1;fill-rule:evenodd;stroke:none;stroke-width:0.49999997;stroke-linecap:round;stroke-linejoin:round;stroke-miterlimit:4;stroke-dasharray:none;stroke-dashoffset:0;stroke-opacity:1;marker:none;paint-order:markers stroke fill;color-rendering:auto;image-rendering:auto;shape-rendering:auto;text-rendering:auto"
         id="path889"
         inkscape:connector-curvature="0" />
      <path
         sodipodi:nodetypes="ccccccssccccccccccccsscccccccccsssscccccssssccccssssccccsssscccssssssssssssssssssssssssssssssssssssccccccsscccccccsscccccccccsscccccccssccc"
         inkscape:connector-curvature="0"
         id="rect998-8-4-0-1-1"
         d="m 541.0293,182.92773 v 19.40821 h 18.61132 v -0.002 c 0.0141,-0.004 0.0516,0.002 0.12891,0.002 h -0.12891 c -0.0375,0.0137 0.13282,0.11935 0.13282,0.74804 v 156.0918 c 0,0.6285 -0.17012,0.73293 -0.13282,0.7461 h 0.12891 c -0.0773,0 -0.11479,0.004 -0.12891,0 H 541.0293 v 19.41015 h 142.32031 v -5 -14.41015 h -18.61133 v 0.002 c -0.0141,0.004 -0.0516,-0.002 -0.1289,-0.002 h 0.1289 c 0.0373,-0.0132 -0.13281,-0.1176 -0.13281,-0.7461 v -156.0918 c 0,-0.62869 0.17026,-0.73438 0.13281,-0.74804 h -0.1289 c 0.0773,0 0.11479,-0.004 0.1289,0 h 18.61133 v -19.40821 z m 3.15039,3.15039 h 136.01953 v 13.10743 h -15.58984 c -1.63232,0 -3.1543,1.5792 -3.1543,3.89843 v 156.0918 c 0,2.31923 1.52199,3.89649 3.1543,3.89649 h 15.58984 v 11.25976 1.84961 H 544.17969 v -13.10937 h 15.58984 c 1.63231,0 3.1543,-1.57726 3.1543,-3.89649 v -156.0918 c 0,-2.31922 -1.52199,-3.89843 -3.1543,-3.89843 h -15.58984 z m 3.69922,3.69922 v 5.70899 h 11.89062 c 3.91272,0 6.85352,3.54918 6.85352,7.59765 v 156.0918 c 0,4.04847 -2.9408,7.59766 -6.85352,7.59766 h -11.89062 v 5.70703 H 676.5 v -5.70703 h -11.89062 c -3.91273,0 -6.85352,-3.54919 -6.85352,-7.59766 v -156.0918 c 0,-4.04846 2.94079,-7.59765 6.85352,-7.59765 H 676.5 v -5.70899 z m 41.33203,5.70899 h 8.25781 c 3.91272,0 6.85547,3.54919 6.85547,7.59765 v 156.0918 c 0,4.04847 -2.94275,7.59766 -6.85547,7.59766 h -8.25781 c -3.91272,0 -6.85352,-3.54918 -6.85352,-7.59766 v -156.0918 c 0,-4.04846 2.9408,-7.59765 6.85352,-7.59765 z m 37.69922,0 h 8.25781 c 3.91272,0 6.85547,3.54919 6.85547,7.59765 v 156.0918 c 0,4.04848 -2.94276,7.59766 -6.85547,7.59766 h -8.25781 c -3.91272,0 -6.85352,-3.54919 -6.85352,-7.59766 v -156.0918 c 0,-4.04846 2.9408,-7.59765 6.85352,-7.59765 z m -37.69922,3.69922 c -1.6323,0 -3.1543,1.57922 -3.1543,3.89843 v 156.0918 c 0,2.31923 1.52199,3.89649 3.1543,3.89649 h 8.25781 c 1.6323,0 3.1543,-1.57726 3.1543,-3.89649 v -156.0918 c 0,-2.31921 -1.522,-3.89843 -3.1543,-3.89843 z m 37.69922,0 c -1.6323,0 -3.1543,1.57922 -3.1543,3.89843 v 156.0918 c 0,2.31923 1.52199,3.89649 3.1543,3.89649 h 8.25781 c 1.6323,0 3.1543,-1.57726 3.1543,-3.89649 v -156.0918 c 0,-2.31921 -1.522,-3.89843 -3.1543,-3.89843 z m -37.57032,3.14843 v 0.002 h 8 v -0.002 c 0.0141,-0.004 0.0516,0.002 0.12891,0.002 h -0.12891 c -0.0375,0.0137 0.13282,0.11935 0.13282,0.74804 v 156.0918 c 0,0.6285 -0.17013,0.73293 -0.13282,0.7461 h 0.12891 c -0.0773,0 -0.1148,0.004 -0.12891,0 h -8 v 0.002 c -0.0141,0.004 -0.0516,-0.002 -0.1289,-0.002 h 0.1289 c 0.0373,-0.0132 -0.13281,-0.11761 -0.13281,-0.7461 v -156.0918 c 0,-0.62866 0.17027,-0.73437 0.13281,-0.74804 h -0.1289 c 0.0773,0 0.11479,-0.006 0.1289,-0.002 z m 37.69922,0 v 0.002 h 8 v -0.002 c 0.0141,-0.004 0.0516,0.002 0.12891,0.002 h -0.12891 c -0.0375,0.0137 0.13282,0.11935 0.13282,0.74804 v 156.0918 c 0,0.62849 -0.17013,0.73293 -0.13282,0.7461 h 0.12891 c -0.0773,0 -0.1148,0.004 -0.12891,0 h -8 v 0.002 c -0.0141,0.004 -0.0516,-0.002 -0.1289,-0.002 h 0.1289 c 0.0373,-0.0132 -0.13281,-0.1176 -0.13281,-0.7461 v -156.0918 c 0,-0.62866 0.17026,-0.73438 0.13281,-0.74804 h -0.1289 c 0.0773,0 0.11479,-0.006 0.1289,-0.002 z"
         style="color:#000000;font-style:normal;font-variant:normal;font-weight:normal;font-stretch:normal;font-size:medium;line-height:normal;font-family:sans-serif;font-variant-ligatures:normal;font-variant-position:normal;font-variant-caps:normal;font-variant-numeric:normal;font-variant-alternates:normal;font-feature-settings:normal;text-indent:0;text-align:start;text-decoration:none;text-decoration-line:none;text-decoration-style:solid;text-decoration-color:#000000;letter-spacing:normal;word-spacing:normal;text-transform:none;writing-mode:lr-tb;direction:ltr;text-orientation:mixed;dominant-baseline:auto;baseline-shift:baseline;text-anchor:start;white-space:normal;shape-padding:0;clip-rule:nonzero;display:inline;overflow:visible;visibility:visible;opacity:1;isolation:auto;mix-blend-mode:normal;color-interpolation:sRGB;color-interpolation-filters:linearRGB;solid-color:#000000;solid-opacity:1;vector-effect:none;fill:url(#linearGradient1218);fill-opacity:1;fill-rule:evenodd;stroke:none;stroke-width:10;stroke-linecap:round;stroke-linejoin:miter;stroke-miterlimit:4;stroke-dasharray:none;stroke-dashoffset:0;stroke-opacity:1;marker:none;paint-order:markers stroke fill;color-rendering:auto;image-rendering:auto;shape-rendering:auto;text-rendering:auto;enable-background:accumulate" />
    </g>
    <g
       aria-label=""
       transform="scale(0.9404167,1.0633584)"
       style="color:#000000;font-style:normal;font-variant:normal;font-weight:bold;font-stretch:normal;font-size:145.27497864px;line-height:125%;font-family:'Kozuka Mincho Pro';-inkscape-font-specification:'Kozuka Mincho Pro Bold';text-indent:0;text-align:center;text-decoration:none;text-decoration-line:none;letter-spacing:normal;word-spacing:normal;text-transform:none;writing-mode:lr-tb;direction:ltr;baseline-shift:baseline;text-anchor:middle;clip-rule:nonzero;display:inline;overflow:visible;visibility:visible;opacity:1;isolation:auto;mix-blend-mode:normal;color-interpolation:sRGB;color-interpolation-filters:linearRGB;solid-color:#000000;solid-opacity:1;vector-effect:none;fill:#fffdfd;fill-opacity:0.9958678;fill-rule:evenodd;stroke:none;stroke-width:0.5;stroke-linecap:round;stroke-linejoin:round;stroke-miterlimit:4;stroke-dasharray:none;stroke-dashoffset:0;stroke-opacity:1;marker:none;paint-order:markers stroke fill;color-rendering:auto;image-rendering:auto;shape-rendering:auto;text-rendering:auto;enable-background:accumulate"
       id="text924">
      <path
         d="m 137.96868,200.47016 h 15.39915 v 68.86034 c 0,14.38222 0.87165,18.44992 12.7842,18.44992 h 9.73342 c 9.15233,0 12.63893,-3.77715 12.63893,-9.00704 0,-2.61495 -0.72638,-3.4866 -4.50353,-5.2299 L 183.87558,254.803 h -1.1622 c -1.30748,5.811 -3.4866,14.67278 -4.79408,17.72355 -0.72637,1.7433 -1.45275,1.88858 -2.3244,1.88858 h -6.10155 c -1.45275,0 -1.45275,-0.29055 -1.45275,-4.21298 v -66.68121 c 3.05078,-0.43583 4.79408,-1.30748 5.811,-2.46968 l -15.54442,-12.05782 -6.53737,8.57122 h -11.33145 l -16.70662,-6.24682 v 37.77149 c 0,21.06487 -1.88858,42.85612 -17.86883,59.85329 -4.0677,-2.61495 -7.844845,-5.95627 -11.18617,-9.87869 10.16925,-19.1763 14.09167,-41.11282 16.41607,-63.3399 3.19605,-0.43582 4.6488,-0.87164 5.66573,-2.46967 l -14.23695,-12.63892 -7.699575,8.42595 H 84.071667 c 1.888575,-6.53738 3.486599,-13.22003 4.794074,-19.7574 3.341325,-0.14528 4.6488,-1.01693 5.084625,-2.9055 l -20.919597,-3.63188 c -2.3244,28.4739 -9.152324,59.99857 -20.483772,79.02959 l 2.033849,1.01693 c 6.973199,-6.53738 12.929473,-14.96332 17.868823,-24.55147 2.469674,15.83497 5.810999,28.47389 10.459798,38.78842 -6.682649,15.54442 -16.270797,29.34554 -30.507745,40.24117 l 1.162199,2.17912 c 15.834973,-8.42595 27.166421,-19.03102 35.447095,-31.08885 14.527494,21.93653 37.335674,27.8928 70.748914,27.8928 h 19.7574 c 0.29055,-6.68265 3.4866,-12.63892 9.58815,-13.9464 v -1.7433 h -27.74752 c -22.51763,0 -39.95062,-2.3244 -53.4612,-10.31452 27.45697,-16.12552 30.07192,-41.11282 30.07192,-61.30604 z m -41.693915,11.47673 c -1.45275,19.32157 -4.067699,38.06204 -9.733423,55.20449 -4.794075,-8.7165 -8.716499,-19.61212 -11.912549,-33.26797 3.341325,-6.9732 6.101549,-14.38223 8.571224,-21.93652 z"
         style="fill:#fffdfd;fill-opacity:0.9958678;stroke:none;stroke-width:0.5"
         id="path900"
         inkscape:connector-curvature="0" />
    </g>
    <text
       xml:space="preserve"
       style="color:#000000;font-style:normal;font-variant:normal;font-weight:bold;font-stretch:normal;font-size:143.8241272px;line-height:125%;font-family:'Kozuka Mincho Pro';-inkscape-font-specification:'Kozuka Mincho Pro Bold';text-indent:0;text-align:center;text-decoration:none;text-decoration-line:none;letter-spacing:normal;word-spacing:normal;text-transform:none;writing-mode:lr-tb;direction:ltr;baseline-shift:baseline;text-anchor:middle;clip-rule:nonzero;display:inline;overflow:visible;visibility:visible;opacity:1;isolation:auto;mix-blend-mode:normal;color-interpolation:sRGB;color-interpolation-filters:linearRGB;solid-color:#000000;solid-opacity:1;vector-effect:none;fill:none;fill-opacity:1;fill-rule:evenodd;stroke:#f30000;stroke-width:0.5;stroke-linecap:round;stroke-linejoin:round;stroke-miterlimit:4;stroke-dasharray:none;stroke-dashoffset:0;stroke-opacity:1;marker:none;paint-order:markers stroke fill;color-rendering:auto;image-rendering:auto;shape-rendering:auto;text-rendering:auto;enable-background:accumulate"
       x="493.95483"
       y="251.34579"
       id="text946-9"
       transform="scale(0.98845143,1.0116835)"><tspan
         sodipodi:role="line"
         id="tspan944-1"
         x="493.95483"
         y="395.88904"
         style="font-style:normal;font-variant:normal;font-weight:bold;font-stretch:normal;font-family:'Kozuka Mincho Pro';-inkscape-font-specification:'Kozuka Mincho Pro Bold';stroke-width:0.5" /></text>
  </g>
</svg>
