<?xml version="1.0" encoding="UTF-8" standalone="no"?>
<!-- Created with Inkscape (http://www.inkscape.org/) -->

<svg
   xmlns:dc="http://purl.org/dc/elements/1.1/"
   xmlns:cc="http://creativecommons.org/ns#"
   xmlns:rdf="http://www.w3.org/1999/02/22-rdf-syntax-ns#"
   xmlns:svg="http://www.w3.org/2000/svg"
   xmlns="http://www.w3.org/2000/svg"
   xmlns:sodipodi="http://sodipodi.sourceforge.net/DTD/sodipodi-0.dtd"
   xmlns:inkscape="http://www.inkscape.org/namespaces/inkscape"
   width="6.3510342mm"
   height="6.3505158mm"
   viewBox="0 0 6.3510342 6.3505158"
   version="1.1"
   id="svg855"
   inkscape:version="0.92.3 (2405546, 2018-03-11)"
   sodipodi:docname="logo-small.svg">
  <defs
     id="defs849" />
  <sodipodi:namedview
     id="base"
     pagecolor="#ffffff"
     bordercolor="#666666"
     borderopacity="1.0"
     inkscape:pageopacity="0.0"
     inkscape:pageshadow="2"
     inkscape:zoom="7.9195959"
     inkscape:cx="13.222487"
     inkscape:cy="7.7290117"
     inkscape:document-units="mm"
     inkscape:current-layer="layer1"
     showgrid="false"
     fit-margin-top="0"
     fit-margin-left="0"
     fit-margin-right="0"
     fit-margin-bottom="0"
     inkscape:window-width="3200"
     inkscape:window-height="1684"
     inkscape:window-x="0"
     inkscape:window-y="116"
     inkscape:window-maximized="0" />
  <metadata
     id="metadata852">
    <rdf:RDF>
      <cc:Work
         rdf:about="">
        <dc:format>image/svg+xml</dc:format>
        <dc:type
           rdf:resource="http://purl.org/dc/dcmitype/StillImage" />
        <dc:title></dc:title>
      </cc:Work>
    </rdf:RDF>
  </metadata>
  <g
     inkscape:label="Layer 1"
     inkscape:groupmode="layer"
     id="layer1"
     transform="translate(-84.514959,-91.796468)">
    <g
       id="g1429">
      <path
         inkscape:connector-curvature="0"
         d="m 86.349855,96.312181 a 0.37792782,0.37792782 0 0 1 -0.365044,-0.280118 0.37792782,0.37792782 0 0 1 0.176086,-0.425112 0.37792782,0.37792782 0 0 1 0.456196,0.06006 m 0.377932,0.377929 a 0.37792782,0.37792782 0 0 1 0.06005,0.456199 0.37792782,0.37792782 0 0 1 -0.425112,0.176083 0.37792782,0.37792782 0 0 1 -0.280118,-0.365044 m 2.681168,-2.681005 a 0.37792782,0.37792782 0 0 1 0.365045,0.280119 0.37792782,0.37792782 0 0 1 -0.176084,0.425112 0.37792782,0.37792782 0 0 1 -0.456198,-0.06006 m -0.377932,-0.377929 a 0.37792782,0.37792782 0 0 1 -0.06005,-0.4562 0.37792782,0.37792782 0 0 1 0.425111,-0.176083 0.37792782,0.37792782 0 0 1 0.280118,0.365045 m -2.036002,2.413766 1.768765,-1.768607 m -2.146693,1.39068 1.768766,-1.768604"
         style="opacity:1;fill:none;fill-opacity:1;stroke:#000000;stroke-width:0.30000001;stroke-linecap:round;stroke-linejoin:round;stroke-miterlimit:4;stroke-dasharray:none;stroke-opacity:1"
         id="path876-5-3-5-8" />
      <path
         d="m 85.852081,92.566984 -0.564454,0.566406 4.240235,4.242188 0.566406,-0.566406 z m 1.838393,-0.770516 a 3.1753958,3.1753958 0 0 0 -3.175515,3.175 3.1753958,3.1753958 0 0 0 3.175515,3.175516 3.1753958,3.1753958 0 0 0 3.175519,-3.175516 3.1753958,3.1753958 0 0 0 -3.175519,-3.175 z m 0,0.809768 a 2.3655026,2.3655026 0 0 1 2.365233,2.365232 2.3655026,2.3655026 0 0 1 -2.365233,2.365745 2.3655026,2.3655026 0 0 1 -2.365745,-2.365745 2.3655026,2.3655026 0 0 1 2.365745,-2.365232 z"
         style="color:#000000;font-style:normal;font-variant:normal;font-weight:normal;font-stretch:normal;font-size:medium;line-height:normal;font-family:sans-serif;font-variant-ligatures:normal;font-variant-position:normal;font-variant-caps:normal;font-variant-numeric:normal;font-variant-alternates:normal;font-feature-settings:normal;text-indent:0;text-align:start;text-decoration:none;text-decoration-line:none;text-decoration-style:solid;text-decoration-color:#000000;letter-spacing:normal;word-spacing:normal;text-transform:none;writing-mode:lr-tb;direction:ltr;text-orientation:mixed;dominant-baseline:auto;baseline-shift:baseline;text-anchor:start;white-space:normal;shape-padding:0;clip-rule:nonzero;display:inline;overflow:visible;visibility:visible;opacity:1;isolation:auto;mix-blend-mode:normal;color-interpolation:sRGB;color-interpolation-filters:linearRGB;solid-color:#000000;solid-opacity:1;vector-effect:none;fill:#ff0101;fill-opacity:1;fill-rule:nonzero;stroke:none;stroke-width:0.80000001;stroke-linecap:butt;stroke-linejoin:miter;stroke-miterlimit:4;stroke-dasharray:none;stroke-dashoffset:0;stroke-opacity:1;color-rendering:auto;image-rendering:auto;shape-rendering:auto;text-rendering:auto;enable-background:accumulate"
         id="path844-1"
         inkscape:connector-curvature="0" />
    </g>
  </g>
</svg>
