<?xml version="1.0" encoding="UTF-8" standalone="no"?>
<!-- Created with Inkscape (http://www.inkscape.org/) -->

<svg
   xmlns:dc="http://purl.org/dc/elements/1.1/"
   xmlns:cc="http://creativecommons.org/ns#"
   xmlns:rdf="http://www.w3.org/1999/02/22-rdf-syntax-ns#"
   xmlns:svg="http://www.w3.org/2000/svg"
   xmlns="http://www.w3.org/2000/svg"
   xmlns:sodipodi="http://sodipodi.sourceforge.net/DTD/sodipodi-0.dtd"
   xmlns:inkscape="http://www.inkscape.org/namespaces/inkscape"
   width="210mm"
   height="297mm"
   viewBox="0 0 210 297"
   version="1.1"
   id="svg8"
   inkscape:version="0.92.3 (2405546, 2018-03-11)"
   sodipodi:docname="logo.svg.2018_12_25_14_19_43.0.svg">
  <defs
     id="defs2" />
  <sodipodi:namedview
     id="base"
     pagecolor="#ffffff"
     bordercolor="#666666"
     borderopacity="1.0"
     inkscape:pageopacity="0.0"
     inkscape:pageshadow="2"
     inkscape:zoom="5.7603571"
     inkscape:cx="236.12166"
     inkscape:cy="820.78599"
     inkscape:document-units="mm"
     inkscape:current-layer="layer1"
     showgrid="false"
     inkscape:window-width="3200"
     inkscape:window-height="1684"
     inkscape:window-x="0"
     inkscape:window-y="116"
     inkscape:window-maximized="0" />
  <metadata
     id="metadata5">
    <rdf:RDF>
      <cc:Work
         rdf:about="">
        <dc:format>image/svg+xml</dc:format>
        <dc:type
           rdf:resource="http://purl.org/dc/dcmitype/StillImage" />
        <dc:title></dc:title>
      </cc:Work>
    </rdf:RDF>
  </metadata>
  <g
     inkscape:label="Layer 1"
     inkscape:groupmode="layer"
     id="layer1">
    <path
       inkscape:connector-curvature="0"
       id="path843-6"
       style="font-style:oblique;font-variant:normal;font-weight:bold;font-stretch:normal;font-size:medium;line-height:25px;font-family:'DejaVu Sans';-inkscape-font-specification:'DejaVu Sans Bold Oblique';letter-spacing:0px;word-spacing:0px;fill:#000000;fill-opacity:0.15195072;stroke:none;stroke-width:0.26458332;opacity:0.98"
       d="m 41.396304,77.590773 q -0.718302,0 -1.183389,0.651124 -0.465087,0.651121 -0.465087,1.658813 0,0.547769 0.248047,0.837157 0.253214,0.284221 0.733803,0.284221 0.718304,0 1.183391,-0.651124 0.465088,-0.656291 0.465088,-1.669147 0,-0.542602 -0.253215,-0.826823 -0.248046,-0.284221 -0.728638,-0.284221 z m 0.149862,-1.322917 q 1.29191,0 2.030884,0.656291 0.738973,0.656292 0.738973,1.788004 0,0.656291 -0.232545,1.276409 -0.232542,0.614949 -0.67696,1.126545 -0.5271,0.609783 -1.245402,0.91984 -0.718301,0.31006 -1.60197,0.31006 -1.276408,0 -2.015381,-0.656291 -0.733804,-0.656291 -0.733804,-1.788004 0,-0.651124 0.23771,-1.271241 0.237712,-0.625284 0.68213,-1.14205 0.516763,-0.599445 1.2299,-0.909505 0.718301,-0.310058 1.586465,-0.310058 z" />
    <path
       inkscape:connector-curvature="0"
       id="path843"
       style="font-style:oblique;font-variant:normal;font-weight:bold;font-stretch:normal;font-size:medium;line-height:25px;font-family:'DejaVu Sans';-inkscape-font-specification:'DejaVu Sans Bold Oblique';letter-spacing:0px;word-spacing:0px;fill:#000000;fill-opacity:0.37777779;stroke:none;stroke-width:0.26458332"
       d="m 48.116958,67.531278 q -0.718302,0 -1.183389,0.651124 -0.465087,0.651121 -0.465087,1.658813 0,0.547769 0.248047,0.837157 0.253214,0.284221 0.733803,0.284221 0.718304,0 1.183391,-0.651124 0.465088,-0.656291 0.465088,-1.669147 0,-0.542602 -0.253215,-0.826823 -0.248046,-0.284221 -0.728638,-0.284221 z m 0.149862,-1.322917 q 1.29191,0 2.030884,0.656291 0.738973,0.656292 0.738973,1.788004 0,0.656291 -0.232545,1.276409 -0.232542,0.614949 -0.67696,1.126545 -0.5271,0.609783 -1.245402,0.91984 -0.718301,0.31006 -1.60197,0.31006 -1.276408,0 -2.015381,-0.656291 -0.733804,-0.656291 -0.733804,-1.788004 0,-0.651124 0.23771,-1.271241 0.237712,-0.625284 0.68213,-1.14205 0.516763,-0.599445 1.2299,-0.909505 0.718301,-0.310058 1.586465,-0.310058 z" />
    <flowRoot
       xml:space="preserve"
       id="flowRoot833"
       style="fill:black;fill-opacity:1;stroke:none;font-family:sans-serif;font-style:normal;font-weight:normal;font-size:40px;line-height:25px;letter-spacing:0px;word-spacing:0px"><flowRegion
         id="flowRegion835"><rect
           id="rect837"
           width="261.07144"
           height="144.82143"
           x="105.89286"
           y="180.91254" /></flowRegion><flowPara
         id="flowPara839" /></flowRoot>    <circle
       style="opacity:1;fill:#832929;fill-opacity:0.37777782;stroke:none;stroke-width:2.06642962;stroke-linecap:butt;stroke-linejoin:round;stroke-miterlimit:4;stroke-dasharray:none;stroke-opacity:1"
       id="path4535"
       cx="41.025459"
       cy="79.323181"
       r="3.1753957" />
    <ellipse
       style="opacity:1;fill:#832929;fill-opacity:0.37777782;stroke:none;stroke-width:2.546875;stroke-linecap:butt;stroke-linejoin:round;stroke-miterlimit:4;stroke-dasharray:none;stroke-opacity:1"
       id="path4539"
       cx="180.69102"
       cy="261.86972"
       rx="10.130134"
       ry="10.290929" />
    <circle
       style="opacity:1;fill:#832929;fill-opacity:0.37777782;stroke:none;stroke-width:1.53938103;stroke-linecap:butt;stroke-linejoin:round;stroke-miterlimit:4;stroke-dasharray:none;stroke-opacity:1"
       id="path4535-3"
       cx="41.025459"
       cy="79.323181"
       r="2.3655026" />
    <path
       style="fill:none;stroke:#974027;stroke-width:0.8;stroke-linecap:butt;stroke-linejoin:miter;stroke-miterlimit:4;stroke-dasharray:none;stroke-opacity:1"
       d="M 43.146345,81.444259 38.904573,77.202105"
       id="path844"
       inkscape:connector-curvature="0"
       sodipodi:nodetypes="cc" />
    <path
       id="path876-5-3-5"
       style="opacity:1;fill:none;fill-opacity:1;stroke:#389727;stroke-width:0.25;stroke-linecap:round;stroke-linejoin:round;stroke-miterlimit:4;stroke-dasharray:none;stroke-opacity:1"
       d="m 39.860231,80.488342 a 0.32849299,0.32849299 0 0 1 -0.317295,-0.243477 0.32849299,0.32849299 0 0 1 0.153053,-0.369505 0.32849299,0.32849299 0 0 1 0.396524,0.0522 m 0.328496,0.328494 a 0.32849299,0.32849299 0 0 1 0.0522,0.396526 0.32849299,0.32849299 0 0 1 -0.369505,0.153051 0.32849299,0.32849299 0 0 1 -0.243478,-0.317295 m 2.330458,-2.330316 a 0.32849299,0.32849299 0 0 1 0.317296,0.243478 0.32849299,0.32849299 0 0 1 -0.153052,0.369505 0.32849299,0.32849299 0 0 1 -0.396525,-0.0522 m -0.328496,-0.328494 a 0.32849299,0.32849299 0 0 1 -0.0522,-0.396527 0.32849299,0.32849299 0 0 1 0.369505,-0.153051 0.32849299,0.32849299 0 0 1 0.243477,0.317296 m -1.769683,2.098033 1.537402,-1.537264 m -1.865895,1.208772 1.537402,-1.537262"
       inkscape:connector-curvature="0" />
    <path
       id="path876-5-3-5-8"
       style="opacity:1;fill:none;fill-opacity:1;stroke:#000000;stroke-width:0.3;stroke-linecap:round;stroke-linejoin:round;stroke-miterlimit:4;stroke-dasharray:none;stroke-opacity:1"
       d="m 47.427462,80.807697 a 0.3779278,0.3779278 0 0 1 -0.365044,-0.280118 0.3779278,0.3779278 0 0 1 0.176086,-0.425112 0.3779278,0.3779278 0 0 1 0.456196,0.06006 m 0.377932,0.377929 a 0.3779278,0.3779278 0 0 1 0.06005,0.456199 0.3779278,0.3779278 0 0 1 -0.425112,0.176083 0.3779278,0.3779278 0 0 1 -0.280118,-0.365044 m 2.681168,-2.681005 a 0.3779278,0.3779278 0 0 1 0.365045,0.280119 0.3779278,0.3779278 0 0 1 -0.176084,0.425112 0.3779278,0.3779278 0 0 1 -0.456198,-0.06006 m -0.377932,-0.377929 a 0.3779278,0.3779278 0 0 1 -0.06005,-0.4562 0.3779278,0.3779278 0 0 1 0.425111,-0.176083 0.3779278,0.3779278 0 0 1 0.280118,0.365045 m -2.036002,2.413766 1.768765,-1.768607 m -2.146693,1.39068 1.768766,-1.768604"
       inkscape:connector-curvature="0" />
    <path
       id="path844-1"
       style="color:#000000;font-style:normal;font-variant:normal;font-weight:normal;font-stretch:normal;font-size:medium;line-height:normal;font-family:sans-serif;font-variant-ligatures:normal;font-variant-position:normal;font-variant-caps:normal;font-variant-numeric:normal;font-variant-alternates:normal;font-feature-settings:normal;text-indent:0;text-align:start;text-decoration:none;text-decoration-line:none;text-decoration-style:solid;text-decoration-color:#000000;letter-spacing:normal;word-spacing:normal;text-transform:none;writing-mode:lr-tb;direction:ltr;text-orientation:mixed;dominant-baseline:auto;baseline-shift:baseline;text-anchor:start;white-space:normal;shape-padding:0;clip-rule:nonzero;display:inline;overflow:visible;visibility:visible;opacity:1;isolation:auto;mix-blend-mode:normal;color-interpolation:sRGB;color-interpolation-filters:linearRGB;solid-color:#000000;solid-opacity:1;vector-effect:none;fill:#ff0101;fill-opacity:1;fill-rule:nonzero;stroke:none;stroke-width:0.80000001;stroke-linecap:butt;stroke-linejoin:miter;stroke-miterlimit:4;stroke-dasharray:none;stroke-dashoffset:0;stroke-opacity:1;color-rendering:auto;image-rendering:auto;shape-rendering:auto;text-rendering:auto;enable-background:accumulate"
       d="m 46.929688,77.0625 -0.564454,0.566406 4.240235,4.242188 0.566406,-0.566406 z m 1.838393,-0.770516 a 3.1753958,3.1753958 0 0 0 -3.175515,3.175 3.1753958,3.1753958 0 0 0 3.175515,3.175516 3.1753958,3.1753958 0 0 0 3.175519,-3.175516 3.1753958,3.1753958 0 0 0 -3.175519,-3.175 z m 0,0.809768 a 2.3655026,2.3655026 0 0 1 2.365233,2.365232 2.3655026,2.3655026 0 0 1 -2.365233,2.365745 2.3655026,2.3655026 0 0 1 -2.365745,-2.365745 2.3655026,2.3655026 0 0 1 2.365745,-2.365232 z" />
    <g
       id="g1194">
      <path
         d="m 40.313819,67.407255 q 0.532267,0 0.83199,-0.268719 0.299722,-0.268716 0.299722,-0.738973 0,-0.30489 -0.211873,-0.465088 -0.206705,-0.160197 -0.599448,-0.160197 h -1.111041 l -0.320394,1.632977 z m -0.589114,3.374469 q 0.68213,0 1.049033,-0.325559 0.366903,-0.325562 0.366903,-0.935345 0,-0.387572 -0.253214,-0.573608 -0.253217,-0.186034 -0.775147,-0.186034 h -1.173057 l -0.392739,2.020546 z M 42.08115,68.0067 q 0.506432,0.144695 0.780315,0.532268 0.279053,0.382404 0.279053,0.950846 0,1.245402 -0.930174,1.948201 -0.92501,0.697632 -2.604492,0.697632 h -3.302125 l 1.503784,-7.715289 h 2.981729 q 1.374593,0 2.030884,0.403074 0.661458,0.403077 0.661458,1.245401 0,0.70797 -0.387572,1.245405 -0.387572,0.532265 -1.01286,0.692462 z"
         style="font-style:oblique;font-variant:normal;font-weight:bold;font-stretch:normal;font-size:medium;line-height:25px;font-family:'DejaVu Sans';-inkscape-font-specification:'DejaVu Sans Bold Oblique';letter-spacing:0px;word-spacing:0px;fill:#000000;fill-opacity:1;stroke:none;stroke-width:0.26458332"
         id="path841"
         inkscape:connector-curvature="0" />
      <path
         d="m 58.245538,68.611315 -0.687295,3.524332 h -1.855184 l 0.583944,-3.017903 q 0.06201,-0.294556 0.09302,-0.496094 0.03617,-0.206706 0.03617,-0.325562 0,-0.330729 -0.186034,-0.511596 -0.180869,-0.180866 -0.516765,-0.180866 -0.573609,0 -0.98702,0.449582 -0.408244,0.444418 -0.568439,1.235067 l -0.558107,2.847372 h -1.855184 l 1.126545,-5.78776 h 1.860352 l -0.170532,0.847495 q 0.511598,-0.501261 1.028361,-0.744141 0.516766,-0.24288 1.080037,-0.24288 0.800987,0 1.235068,0.418579 0.434083,0.418579 0.434083,1.178222 0,0.165364 -0.02585,0.366903 -0.02066,0.201538 -0.06718,0.43925 z"
         style="font-style:oblique;font-variant:normal;font-weight:bold;font-stretch:normal;font-size:medium;line-height:25px;font-family:'DejaVu Sans';-inkscape-font-specification:'DejaVu Sans Bold Oblique';letter-spacing:0px;word-spacing:0px;fill:#000000;fill-opacity:1;stroke:none;stroke-width:0.26458332"
         id="path845"
         inkscape:connector-curvature="0" />
      <path
         d="m 65.609432,69.458807 -0.06201,0.294558 h -4.330486 q 0,0.031 -0.0052,0.09302 -0.0052,0.05684 -0.0052,0.08785 0,0.563274 0.335896,0.842325 0.341064,0.279053 1.018027,0.279053 0.583943,0 1.2299,-0.175699 0.651121,-0.175699 1.364257,-0.521933 l -0.28422,1.436605 q -0.676963,0.248047 -1.348756,0.366903 -0.666626,0.124024 -1.359091,0.124024 -1.353923,0 -2.092893,-0.625285 -0.733806,-0.625284 -0.733806,-1.767334 0,-0.661459 0.232542,-1.281576 0.237712,-0.625284 0.687297,-1.14205 0.532268,-0.620117 1.271241,-0.940509 0.744141,-0.320395 1.648479,-0.320395 1.173054,0 1.860351,0.625285 0.692462,0.625284 0.692462,1.684652 0,0.206706 -0.031,0.439248 -0.02585,0.227378 -0.08785,0.501261 z m -1.746665,-0.847492 q 0.0155,-0.06718 0.02066,-0.134358 0.01035,-0.07235 0.01035,-0.139528 0,-0.413411 -0.248047,-0.656291 -0.248047,-0.242877 -0.671793,-0.242877 -0.542602,0 -0.92501,0.299723 -0.377237,0.294555 -0.578776,0.873331 z"
         style="font-style:oblique;font-variant:normal;font-weight:bold;font-stretch:normal;font-size:medium;line-height:25px;font-family:'DejaVu Sans';-inkscape-font-specification:'DejaVu Sans Bold Oblique';letter-spacing:0px;word-spacing:0px;fill:#000000;fill-opacity:1;stroke:none;stroke-width:0.26458332"
         id="path847"
         inkscape:connector-curvature="0" />
      <path
         d="m 68.017553,64.094796 h 1.860352 l -1.565796,8.040851 h -1.855185 z"
         style="font-style:oblique;font-variant:normal;font-weight:bold;font-stretch:normal;font-size:medium;line-height:25px;font-family:'DejaVu Sans';-inkscape-font-specification:'DejaVu Sans Bold Oblique';letter-spacing:0px;word-spacing:0px;fill:#000000;fill-opacity:1;stroke:none;stroke-width:0.26458332"
         id="path849"
         inkscape:connector-curvature="0" />
      <path
         d="m 76.414973,69.458807 -0.06201,0.294558 H 72.02248 q 0,0.031 -0.0052,0.09302 -0.0052,0.05684 -0.0052,0.08785 0,0.563274 0.335899,0.842325 0.341064,0.279053 1.018024,0.279053 0.583944,0 1.2299,-0.175699 0.651124,-0.175699 1.364258,-0.521933 l -0.284221,1.436605 q -0.67696,0.248047 -1.348756,0.366903 -0.666625,0.124024 -1.359087,0.124024 -1.353924,0 -2.092897,-0.625285 -0.733806,-0.625284 -0.733806,-1.767334 0,-0.661459 0.232545,-1.281576 0.237712,-0.625284 0.687295,-1.14205 0.532267,-0.620117 1.271241,-0.940509 0.74414,-0.320395 1.648478,-0.320395 1.173054,0 1.860352,0.625285 0.692465,0.625284 0.692465,1.684652 0,0.206706 -0.03101,0.439248 -0.02585,0.227378 -0.08785,0.501261 z M 74.66831,68.611315 q 0.0155,-0.06718 0.02066,-0.134358 0.01035,-0.07235 0.01035,-0.139528 0,-0.413411 -0.248046,-0.656291 -0.248047,-0.242877 -0.671793,-0.242877 -0.542603,0 -0.925008,0.299723 -0.377237,0.294555 -0.578776,0.873331 z"
         style="font-style:oblique;font-variant:normal;font-weight:bold;font-stretch:normal;font-size:medium;line-height:25px;font-family:'DejaVu Sans';-inkscape-font-specification:'DejaVu Sans Bold Oblique';letter-spacing:0px;word-spacing:0px;fill:#000000;fill-opacity:1;stroke:none;stroke-width:0.26458332"
         id="path851"
         inkscape:connector-curvature="0" />
      <path
         d="m 82.864192,66.528756 -0.273886,1.436603 q -0.542603,-0.258382 -1.080038,-0.39274 -0.537434,-0.134358 -1.018024,-0.134358 -0.547772,0 -0.847494,0.144693 -0.294556,0.139525 -0.294556,0.403077 0,0.15503 0.165365,0.248047 0.165364,0.09302 0.651124,0.196371 l 0.335896,0.06201 q 1.121378,0.237712 1.570964,0.61495 0.449585,0.37207 0.449585,1.038696 0,1.007689 -0.790649,1.576131 -0.790652,0.563274 -2.211753,0.563274 -0.594278,0 -1.214395,-0.09302 -0.620117,-0.09302 -1.266074,-0.279053 l 0.279054,-1.452108 q 0.501261,0.294555 1.069702,0.444415 0.573609,0.149863 1.173054,0.149863 0.583944,0 0.878499,-0.139525 0.294555,-0.139528 0.294555,-0.408244 0,-0.186037 -0.165364,-0.289388 -0.165365,-0.103355 -0.682128,-0.211873 l -0.335896,-0.06201 Q 78.559545,69.737861 78.135799,69.334784 77.71205,68.93171 77.71205,68.218573 q 0,-0.966348 0.728639,-1.488281 0.733806,-0.521931 2.092897,-0.521931 0.594278,0 1.167886,0.08268 0.578776,0.07752 1.16272,0.237712 z"
         style="font-style:oblique;font-variant:normal;font-weight:bold;font-stretch:normal;font-size:medium;line-height:25px;font-family:'DejaVu Sans';-inkscape-font-specification:'DejaVu Sans Bold Oblique';letter-spacing:0px;word-spacing:0px;fill:#000000;fill-opacity:1;stroke:none;stroke-width:0.26458332"
         id="path853"
         inkscape:connector-curvature="0" />
      <path
         d="m 89.163548,66.528756 -0.273884,1.436603 q -0.542602,-0.258382 -1.080037,-0.39274 -0.537435,-0.134358 -1.018027,-0.134358 -0.547769,0 -0.847494,0.144693 -0.294556,0.139525 -0.294556,0.403077 0,0.15503 0.165365,0.248047 0.165365,0.09302 0.651124,0.196371 l 0.335896,0.06201 q 1.121378,0.237712 1.570964,0.61495 0.449585,0.37207 0.449585,1.038696 0,1.007689 -0.790649,1.576131 -0.790649,0.563274 -2.211753,0.563274 -0.594278,0 -1.214395,-0.09302 -0.620117,-0.09302 -1.266073,-0.279053 l 0.279053,-1.452108 q 0.501261,0.294555 1.069702,0.444415 0.573609,0.149863 1.173054,0.149863 0.583946,0 0.878502,-0.139525 0.294555,-0.139528 0.294555,-0.408244 0,-0.186037 -0.165365,-0.289388 -0.165364,-0.103355 -0.68213,-0.211873 l -0.335896,-0.06201 q -0.992188,-0.206705 -1.415934,-0.609782 -0.423746,-0.403074 -0.423746,-1.116211 0,-0.966348 0.728636,-1.488281 0.733806,-0.521931 2.092897,-0.521931 0.594278,0 1.167886,0.08268 0.578776,0.07752 1.16272,0.237712 z"
         style="font-style:oblique;font-variant:normal;font-weight:bold;font-stretch:normal;font-size:medium;line-height:25px;font-family:'DejaVu Sans';-inkscape-font-specification:'DejaVu Sans Bold Oblique';letter-spacing:0px;word-spacing:0px;fill:#000000;fill-opacity:1;stroke:none;stroke-width:0.26458332"
         id="path855"
         inkscape:connector-curvature="0" />
      <g
         transform="matrix(1,0,-0.14054083,1,1.3416789,-9.2308921)"
         id="g1115">
        <path
           id="path876-5-3-5-8-7"
           style="opacity:1;fill:none;fill-opacity:1;stroke:#000000;stroke-width:0.30000001;stroke-linecap:round;stroke-linejoin:round;stroke-miterlimit:4;stroke-dasharray:none;stroke-opacity:1"
           d="m 56.097885,79.726608 a 0.37792782,0.37792782 0 0 1 -0.365044,-0.280118 0.37792782,0.37792782 0 0 1 0.176086,-0.425112 0.37792782,0.37792782 0 0 1 0.456196,0.06006 m 0.377932,0.377929 a 0.37792782,0.37792782 0 0 1 0.06005,0.456199 0.37792782,0.37792782 0 0 1 -0.425112,0.176083 0.37792782,0.37792782 0 0 1 -0.280118,-0.365044 M 58.779044,77.0456 a 0.37792782,0.37792782 0 0 1 0.365044,0.280119 0.37792782,0.37792782 0 0 1 -0.176084,0.425112 0.37792782,0.37792782 0 0 1 -0.456198,-0.06006 m -0.377931,-0.377929 a 0.37792782,0.37792782 0 0 1 -0.06005,-0.4562 0.37792782,0.37792782 0 0 1 0.425112,-0.176083 0.37792782,0.37792782 0 0 1 0.280118,0.365045 m -2.036003,2.413766 1.768766,-1.768607 m -2.146694,1.39068 1.768766,-1.768604"
           inkscape:connector-curvature="0" />
        <path
           inkscape:connector-curvature="0"
           id="path844-1-9"
           style="color:#000000;font-style:normal;font-variant:normal;font-weight:normal;font-stretch:normal;font-size:medium;line-height:normal;font-family:sans-serif;font-variant-ligatures:normal;font-variant-position:normal;font-variant-caps:normal;font-variant-numeric:normal;font-variant-alternates:normal;font-feature-settings:normal;text-indent:0;text-align:start;text-decoration:none;text-decoration-line:none;text-decoration-style:solid;text-decoration-color:#000000;letter-spacing:normal;word-spacing:normal;text-transform:none;writing-mode:lr-tb;direction:ltr;text-orientation:mixed;dominant-baseline:auto;baseline-shift:baseline;text-anchor:start;white-space:normal;shape-padding:0;clip-rule:nonzero;display:inline;overflow:visible;visibility:visible;opacity:1;isolation:auto;mix-blend-mode:normal;color-interpolation:sRGB;color-interpolation-filters:linearRGB;solid-color:#000000;solid-opacity:1;vector-effect:none;fill:#ff0101;fill-opacity:1;fill-rule:nonzero;stroke:none;stroke-width:0.80000001;stroke-linecap:butt;stroke-linejoin:miter;stroke-miterlimit:4;stroke-dasharray:none;stroke-dashoffset:0;stroke-opacity:1;color-rendering:auto;image-rendering:auto;shape-rendering:auto;text-rendering:auto;enable-background:accumulate"
           d="m 55.600111,75.981411 -0.564454,0.566406 4.240235,4.242188 0.566406,-0.566406 z m 1.838394,-0.770516 a 3.1753958,3.1753958 0 0 0 -3.175516,3.175 3.1753958,3.1753958 0 0 0 3.175516,3.175516 3.1753958,3.1753958 0 0 0 3.175518,-3.175516 3.1753958,3.1753958 0 0 0 -3.175518,-3.175 z m 0,0.809768 a 2.3655026,2.3655026 0 0 1 2.365233,2.365232 2.3655026,2.3655026 0 0 1 -2.365233,2.365745 2.3655026,2.3655026 0 0 1 -2.365746,-2.365745 2.3655026,2.3655026 0 0 1 2.365746,-2.365232 z" />
      </g>
    </g>
    <path
       inkscape:connector-curvature="0"
       id="path845-2"
       style="font-style:oblique;font-variant:normal;font-weight:bold;font-stretch:normal;font-size:medium;line-height:25px;font-family:'DejaVu Sans';-inkscape-font-specification:'DejaVu Sans Bold Oblique';letter-spacing:0px;word-spacing:0px;fill:#000000;fill-opacity:0.3634497;stroke:none;stroke-width:0.26458332"
       d="m 58.908788,78.688926 -0.687294,3.524332 H 56.36631 l 0.583943,-3.017903 q 0.06201,-0.294556 0.09302,-0.496094 0.03617,-0.206706 0.03617,-0.325562 0,-0.330729 -0.186033,-0.511596 -0.18087,-0.180866 -0.516766,-0.180866 -0.573609,0 -0.987019,0.449582 -0.408245,0.444418 -0.56844,1.235067 l -0.558107,2.847372 h -1.855184 l 1.126545,-5.78776 h 1.860353 l -0.170533,0.847495 q 0.511598,-0.501261 1.028361,-0.744141 0.516766,-0.24288 1.080038,-0.24288 0.800986,0 1.235067,0.418579 0.434084,0.418579 0.434084,1.178222 0,0.165364 -0.02585,0.366903 -0.02066,0.201538 -0.06718,0.43925 z" />
  </g>
</svg>
